<?xml version="1.0" encoding="UTF-8"?>
<svg width="47px" height="41px" viewBox="0 0 47 41" version="1.1" xmlns="http://www.w3.org/2000/svg" xmlns:xlink="http://www.w3.org/1999/xlink">
    <!-- Generator: Sketch 48.2 (47327) - http://www.bohemiancoding.com/sketch -->
    <title>community-icon</title>
    <desc>Created with Sketch.</desc>
    <defs></defs>
    <g id="Katalon-recoder-help-popup" stroke="none" stroke-width="1" fill="none" fill-rule="evenodd" transform="translate(-206.000000, -394.000000)">
        <g id="community-icon" transform="translate(207.000000, 395.000000)" stroke="#3BBA00" stroke-width="1.44">
            <g id="Group-4-Copy" transform="translate(16.512821, 17.951220)">
                <path d="M5.75667405,4.93345378 L5.75667405,0.388096058" id="Stroke-1"></path>
                <path d="M5.75667405,4.93345378 L0.393162393,8.19512195" id="Stroke-2"></path>
                <path d="M5.75667405,4.93345378 L11.4017094,8.19512195" id="Stroke-3"></path>
            </g>
            <g id="Group-6-Copy" transform="translate(0.000000, 21.073171)">
                <g id="Group-8">
                    <path d="M8.99281933,0.0745073882 C4.02608224,0.0745073882 -0.000135456466,4.06000457 -0.000135456466,8.97650889 C-0.000135456466,13.8925663 4.02608224,17.8780634 8.99281933,17.8780634 C13.9595564,17.8780634 17.9857741,13.8925663 17.9857741,8.97650889 C17.9857741,4.06000457 13.9595564,0.0745073882 8.99281933,0.0745073882" id="Fill-6"></path>
                </g>
                <path d="M8.98934262,4.33604336 C7.50970649,4.33604336 6.31001372,5.52360263 6.31001372,6.98827396 C6.31001372,8.4529453 7.50970649,9.64050457 8.98934262,9.64050457 C10.4689788,9.64050457 11.6686715,8.4529453 11.6686715,6.98827396 C11.6686715,5.52360263 10.4689788,4.33604336 8.98934262,4.33604336" id="Fill-9"></path>
                <path d="M5.33924238,17.1011054 L5.33924238,13.832524 C5.33924238,11.7810008 7.0198056,10.1174345 9.09274105,10.1174345 L9.09274105,10.1174345 C11.165225,10.1174345 12.8457882,11.7810008 12.8457882,13.832524 L12.8457882,17.1011054" id="Stroke-14"></path>
            </g>
            <g id="Group-6-Copy-2" transform="translate(12.581197, 0.000000)">
                <g id="Group-8">
                    <path d="M8.99281933,0.0745073882 C4.02608224,0.0745073882 -0.000135456466,4.06000457 -0.000135456466,8.97650889 C-0.000135456466,13.8925663 4.02608224,17.8780634 8.99281933,17.8780634 C13.9595564,17.8780634 17.9857741,13.8925663 17.9857741,8.97650889 C17.9857741,4.06000457 13.9595564,0.0745073882 8.99281933,0.0745073882" id="Fill-6"></path>
                </g>
                <path d="M8.98934262,4.33604336 C7.50970649,4.33604336 6.31001372,5.52360263 6.31001372,6.98827396 C6.31001372,8.4529453 7.50970649,9.64050457 8.98934262,9.64050457 C10.4689788,9.64050457 11.6686715,8.4529453 11.6686715,6.98827396 C11.6686715,5.52360263 10.4689788,4.33604336 8.98934262,4.33604336" id="Fill-9"></path>
                <path d="M5.33924238,17.1011054 L5.33924238,13.832524 C5.33924238,11.7810008 7.0198056,10.1174345 9.09274105,10.1174345 L9.09274105,10.1174345 C11.165225,10.1174345 12.8457882,11.7810008 12.8457882,13.832524 L12.8457882,17.1011054" id="Stroke-14"></path>
            </g>
            <g id="Group-6-Copy-3" transform="translate(26.735043, 21.073171)">
                <g id="Group-8">
                    <path d="M8.99281933,0.0745073882 C4.02608224,0.0745073882 -0.000135456466,4.06000457 -0.000135456466,8.97650889 C-0.000135456466,13.8925663 4.02608224,17.8780634 8.99281933,17.8780634 C13.9595564,17.8780634 17.9857741,13.8925663 17.9857741,8.97650889 C17.9857741,4.06000457 13.9595564,0.0745073882 8.99281933,0.0745073882" id="Fill-6"></path>
                </g>
                <path d="M8.98934262,4.33604336 C7.50970649,4.33604336 6.31001372,5.52360263 6.31001372,6.98827396 C6.31001372,8.4529453 7.50970649,9.64050457 8.98934262,9.64050457 C10.4689788,9.64050457 11.6686715,8.4529453 11.6686715,6.98827396 C11.6686715,5.52360263 10.4689788,4.33604336 8.98934262,4.33604336" id="Fill-9"></path>
                <path d="M5.33924238,17.1011054 L5.33924238,13.832524 C5.33924238,11.7810008 7.0198056,10.1174345 9.09274105,10.1174345 L9.09274105,10.1174345 C11.165225,10.1174345 12.8457882,11.7810008 12.8457882,13.832524 L12.8457882,17.1011054" id="Stroke-14"></path>
            </g>
        </g>
    </g>
</svg>