<?xml version="1.0" encoding="UTF-8"?>
<svg width="14px" height="16px" viewBox="0 0 14 16" version="1.1" xmlns="http://www.w3.org/2000/svg" xmlns:xlink="http://www.w3.org/1999/xlink">
    <!-- Generator: Sketch 48.2 (47327) - http://www.bohemiancoding.com/sketch -->
    <title>export-icon-16</title>
    <desc>Created with Sketch.</desc>
    <defs></defs>
    <g id="Symbols" stroke="none" stroke-width="1" fill="none" fill-rule="evenodd">
        <g id="export-icon-16" stroke="#979797" stroke-width="1.2">
            <g id="Group" transform="translate(1.000000, 1.000000)">
                <path d="M8,0 C8.07920792,0.00940860215 8.1760176,0.0188172043 8.29042904,0.0282258065 C8.40484048,0.0376344086 8.52585259,0.0588037634 8.65346535,0.091733871 C8.78107811,0.124663978 8.91089109,0.169354839 9.04290429,0.225806452 C9.17491749,0.282258065 9.30253025,0.362231183 9.42574257,0.465725806 C9.61936194,0.625672043 9.7689769,0.799731183 9.87458746,0.987903226 C9.98019802,1.17607527 10.0572057,1.38306452 10.1056106,1.60887097 C10.1540154,1.83467742 10.1826183,2.08400538 10.1914191,2.35685484 C10.20022,2.6297043 10.2046205,2.92607527 10.2046205,3.24596774 L10.2046205,4.75604839 C10.2046205,5.09475806 10.2266227,5.38407258 10.2706271,5.62399194 C10.3146315,5.86391129 10.40044,6.06854839 10.5280528,6.23790323 C10.6556656,6.40725806 10.8360836,6.5483871 11.0693069,6.66129032 C11.3025303,6.77419355 11.6127613,6.87298387 12,6.95766129 L12,7.04233871 C11.6127613,7.12701613 11.3025303,7.22580645 11.0693069,7.33870968 C10.8360836,7.4516129 10.6556656,7.59274194 10.5280528,7.76209677 C10.40044,7.93145161 10.3146315,8.13608871 10.2706271,8.37600806 C10.2266227,8.61592742 10.2046205,8.90524194 10.2046205,9.24395161 L10.2046205,10.7540323 C10.2046205,11.0739247 10.20022,11.3702957 10.1914191,11.6431452 C10.1826183,11.9159946 10.1540154,12.1653226 10.1056106,12.391129 C10.0572057,12.6169355 9.98019802,12.8239247 9.87458746,13.0120968 C9.7689769,13.2002688 9.61936194,13.374328 9.42574257,13.5342742 C9.30253025,13.6377688 9.17491749,13.7177419 9.04290429,13.7741935 C8.91089109,13.8306452 8.78107811,13.875336 8.65346535,13.9082661 C8.52585259,13.9411962 8.40484048,13.9623656 8.29042904,13.9717742 C8.1760176,13.9811828 8.07920792,13.9905914 8,14" id="Page-1"></path>
                <path d="M0,0 C0.0792079208,0.00940860215 0.176017602,0.0188172043 0.290429043,0.0282258065 C0.404840484,0.0376344086 0.525852585,0.0588037634 0.653465347,0.091733871 C0.781078108,0.124663978 0.910891089,0.169354839 1.04290429,0.225806452 C1.17491749,0.282258065 1.30253025,0.362231183 1.42574257,0.465725806 C1.61936194,0.625672043 1.7689769,0.799731183 1.87458746,0.987903226 C1.98019802,1.17607527 2.05720572,1.38306452 2.10561056,1.60887097 C2.1540154,1.83467742 2.18261826,2.08400538 2.19141914,2.35685484 C2.20022002,2.6297043 2.20462046,2.92607527 2.20462046,3.24596774 L2.20462046,4.75604839 C2.20462046,5.09475806 2.22662266,5.38407258 2.27062706,5.62399194 C2.31463146,5.86391129 2.40044004,6.06854839 2.52805281,6.23790323 C2.65566557,6.40725806 2.83608361,6.5483871 3.06930693,6.66129032 C3.30253025,6.77419355 3.61276128,6.87298387 4,6.95766129 L4,7.04233871 C3.61276128,7.12701613 3.30253025,7.22580645 3.06930693,7.33870968 C2.83608361,7.4516129 2.65566557,7.59274194 2.52805281,7.76209677 C2.40044004,7.93145161 2.31463146,8.13608871 2.27062706,8.37600806 C2.22662266,8.61592742 2.20462046,8.90524194 2.20462046,9.24395161 L2.20462046,10.7540323 C2.20462046,11.0739247 2.20022002,11.3702957 2.19141914,11.6431452 C2.18261826,11.9159946 2.1540154,12.1653226 2.10561056,12.391129 C2.05720572,12.6169355 1.98019802,12.8239247 1.87458746,13.0120968 C1.7689769,13.2002688 1.61936194,13.374328 1.42574257,13.5342742 C1.30253025,13.6377688 1.17491749,13.7177419 1.04290429,13.7741935 C0.910891089,13.8306452 0.781078108,13.875336 0.653465347,13.9082661 C0.525852585,13.9411962 0.404840484,13.9623656 0.290429043,13.9717742 C0.176017602,13.9811828 0.0792079208,13.9905914 0,14" id="Page-1-Copy" transform="translate(2.000000, 7.000000) scale(-1, 1) translate(-2.000000, -7.000000) "></path>
            </g>
        </g>
    </g>
</svg>