<?xml version="1.0" encoding="UTF-8"?>
<svg width="23px" height="23px" viewBox="0 0 23 23" version="1.1" xmlns="http://www.w3.org/2000/svg" xmlns:xlink="http://www.w3.org/1999/xlink">
    <!-- Generator: Sketch 47.1 (45422) - http://www.bohemiancoding.com/sketch -->
    <title>export-icon</title>
    <desc>Created with Sketch.</desc>
    <defs></defs>
    <g id="Katalon-Recorder" stroke="none" stroke-width="1" fill="none" fill-rule="evenodd">
        <g id="Katalon-recoder-new-icon" transform="translate(-364.000000, -59.000000)" stroke="#979797">
            <g id="export-icon" transform="translate(364.000000, 58.000000)">
                <path d="M16,1.77235829 C16.128393,1.78662418 16.2853178,1.80089007 16.4707743,1.81515596 C16.6562309,1.82942184 16.8523868,1.86152009 17.0592422,1.9114507 C17.2660976,1.96138131 17.4765194,2.02914428 17.6905078,2.11473961 C17.9044961,2.20033494 18.1113515,2.32159499 18.3110739,2.47851976 C18.6249234,2.72103986 18.8674435,2.98495879 19.0386342,3.27027656 C19.2098249,3.55559432 19.3346514,3.86944386 19.4131138,4.21182518 C19.4915761,4.5542065 19.5379403,4.93225254 19.5522062,5.3459633 C19.5664721,5.75967406 19.573605,6.20904954 19.573605,6.69408974 L19.573605,8.9837648 C19.573605,9.49733678 19.6092697,9.93601284 19.6805992,10.299793 C19.7519286,10.6635731 19.891021,10.9738562 20.0978764,11.2306422 C20.3047318,11.4874282 20.5971825,11.7014165 20.9752285,11.8726072 C21.3532746,12.0437978 21.8561471,12.1935897 22.4838462,12.3219826 L22.4838462,12.4503756 C21.8561471,12.5787686 21.3532746,12.7285605 20.9752285,12.8997511 C20.5971825,13.0709418 20.3047318,13.2849301 20.0978764,13.5417161 C19.891021,13.7985021 19.7519286,14.1087852 19.6805992,14.4725653 C19.6092697,14.8363455 19.573605,15.2750215 19.573605,15.7885935 L19.573605,18.0782686 C19.573605,18.5633088 19.5664721,19.0126842 19.5522062,19.426395 C19.5379403,19.8401058 19.4915761,20.2181518 19.4131138,20.5605331 C19.3346514,20.9029144 19.2098249,21.216764 19.0386342,21.5020817 C18.8674435,21.7873995 18.6249234,22.0513184 18.3110739,22.2938385 C18.1113515,22.4507633 17.9044961,22.5720234 17.6905078,22.6576187 C17.4765194,22.743214 17.2660976,22.810977 17.0592422,22.8609076 C16.8523868,22.9108382 16.6562309,22.9429364 16.4707743,22.9572023 C16.2853178,22.9714682 16.128393,22.9857341 16,23" id="Page-1"></path>
                <path d="M0,1.77235829 C0.128392994,1.78662418 0.285317765,1.80089007 0.470774312,1.81515596 C0.656230859,1.82942184 0.852386823,1.86152009 1.0592422,1.9114507 C1.26609758,1.96138131 1.47651943,2.02914428 1.69050776,2.11473961 C1.90449608,2.20033494 2.11135146,2.32159499 2.3110739,2.47851976 C2.62492344,2.72103986 2.86744354,2.98495879 3.0386342,3.27027656 C3.20982486,3.55559432 3.33465138,3.86944386 3.41311376,4.21182518 C3.49157615,4.5542065 3.53794028,4.93225254 3.55220617,5.3459633 C3.56647206,5.75967406 3.57360501,6.20904954 3.57360501,6.69408974 L3.57360501,8.9837648 C3.57360501,9.49733678 3.60926973,9.93601284 3.68059917,10.299793 C3.75192861,10.6635731 3.89102102,10.9738562 4.0978764,11.2306422 C4.30473178,11.4874282 4.59718249,11.7014165 4.97522853,11.8726072 C5.35327456,12.0437978 5.85614712,12.1935897 6.48384621,12.3219826 L6.48384621,12.4503756 C5.85614712,12.5787686 5.35327456,12.7285605 4.97522853,12.8997511 C4.59718249,13.0709418 4.30473178,13.2849301 4.0978764,13.5417161 C3.89102102,13.7985021 3.75192861,14.1087852 3.68059917,14.4725653 C3.60926973,14.8363455 3.57360501,15.2750215 3.57360501,15.7885935 L3.57360501,18.0782686 C3.57360501,18.5633088 3.56647206,19.0126842 3.55220617,19.426395 C3.53794028,19.8401058 3.49157615,20.2181518 3.41311376,20.5605331 C3.33465138,20.9029144 3.20982486,21.216764 3.0386342,21.5020817 C2.86744354,21.7873995 2.62492344,22.0513184 2.3110739,22.2938385 C2.11135146,22.4507633 1.90449608,22.5720234 1.69050776,22.6576187 C1.47651943,22.743214 1.26609758,22.810977 1.0592422,22.8609076 C0.852386823,22.9108382 0.656230859,22.9429364 0.470774312,22.9572023 C0.285317765,22.9714682 0.128392994,22.9857341 0,23" id="Page-1-Copy" transform="translate(3.898216, 11.500000) scale(-1, 1) translate(-3.898216, -11.500000) "></path>
            </g>
        </g>
    </g>
</svg>