<?xml version="1.0" encoding="UTF-8"?>
<svg width="24px" height="24px" viewBox="0 0 24 24" version="1.1" xmlns="http://www.w3.org/2000/svg" xmlns:xlink="http://www.w3.org/1999/xlink">
    <!-- Generator: Sketch 48.1 (47250) - http://www.bohemiancoding.com/sketch -->
    <title>help-icon</title>
    <desc>Created with Sketch.</desc>
    <defs></defs>
    <g id="Symbols" stroke="none" stroke-width="1" fill="none" fill-rule="evenodd">
        <g id="help-icon">
            <g></g>
            <circle id="Oval-Copy-5" stroke="#3BBA00" cx="12" cy="12" r="11"></circle>
            <path d="M8,9.41015625 L9.50292969,9.41015625 C9.54980492,8.78319999 9.77392377,8.28662292 10.175293,7.92041016 C10.5766622,7.55419739 11.1083951,7.37109375 11.7705078,7.37109375 C12.4267611,7.37109375 12.9497051,7.5498029 13.3393555,7.90722656 C13.7290059,8.26465022 13.9238281,8.71581759 13.9238281,9.26074219 C13.9238281,9.72949453 13.8154308,10.1220687 13.5986328,10.4384766 C13.3818349,10.7548844 13.0185572,11.0683578 12.5087891,11.3789062 C11.9052704,11.7363299 11.4599624,12.1259745 11.1728516,12.5478516 C10.8857408,12.9697287 10.7451172,13.4707002 10.7509766,14.0507812 L10.7509766,14.859375 L12.2890625,14.859375 L12.2890625,14.2880859 C12.2890625,13.825193 12.3886709,13.4458023 12.5878906,13.1499023 C12.7871104,12.8540024 13.1650363,12.5419938 13.7216797,12.2138672 C14.2841825,11.8740217 14.7309554,11.4565454 15.0620117,10.9614258 C15.3930681,10.4663061 15.5585938,9.87305033 15.5585938,9.18164062 C15.5585938,8.27343296 15.2143589,7.51611631 14.5258789,6.90966797 C13.8373989,6.30321962 12.9394587,6 11.8320312,6 C10.5956969,6 9.65967115,6.33105138 9.02392578,6.99316406 C8.38818042,7.65527675 8.04687523,8.46093275 8,9.41015625 Z M11.6386719,18.9375 C11.9960955,18.9375 12.2875965,18.8232433 12.5131836,18.5947266 C12.7387707,18.3662098 12.8515625,18.073244 12.8515625,17.7158203 C12.8515625,17.3525372 12.7387707,17.0566418 12.5131836,16.828125 C12.2875965,16.5996082 11.9960955,16.4853516 11.6386719,16.4853516 C11.2812482,16.4853516 10.9882824,16.5996082 10.7597656,16.828125 C10.5312489,17.0566418 10.4169922,17.3525372 10.4169922,17.7158203 C10.4169922,18.073244 10.5312489,18.3662098 10.7597656,18.5947266 C10.9882824,18.8232433 11.2812482,18.9375 11.6386719,18.9375 Z" id="?" fill="#3BBA00"></path>
        </g>
    </g>
</svg>