<?xml version="1.0" encoding="UTF-8"?>
<svg width="16px" height="16px" viewBox="0 0 16 16" version="1.1" xmlns="http://www.w3.org/2000/svg" xmlns:xlink="http://www.w3.org/1999/xlink">
    <!-- Generator: Sketch 48.2 (47327) - http://www.bohemiancoding.com/sketch -->
    <title>help-icon-16</title>
    <desc>Created with Sketch.</desc>
    <defs></defs>
    <g id="Symbols" stroke="none" stroke-width="1" fill="none" fill-rule="evenodd">
        <g id="help-icon-16" stroke="#3BBA00">
            <circle id="Oval-Copy-5" stroke-width="1.2" cx="8" cy="8" r="7"></circle>
            <path d="M5.5,6.10869565 L6.49418605,6.10869565 C6.52519395,5.72101255 6.67344828,5.41395041 6.93895349,5.1875 C7.20445869,4.96104959 7.55619936,4.84782609 7.99418605,4.84782609 C8.42829674,4.84782609 8.77422352,4.95833223 9.03197674,5.17934783 C9.28972997,5.40036342 9.41860465,5.67934614 9.41860465,6.01630435 C9.41860465,6.30616087 9.34689994,6.54891207 9.20348837,6.74456522 C9.0600768,6.94021837 8.81976913,7.13405701 8.48255814,7.32608696 C8.08333134,7.54710255 7.78876064,7.78804217 7.59883721,8.04891304 C7.40891378,8.30978391 7.31589145,8.61956342 7.31976744,8.97826087 L7.31976744,9.47826087 L8.3372093,9.47826087 L8.3372093,9.125 C8.3372093,8.83876668 8.40310012,8.60416758 8.53488372,8.42119565 C8.66666733,8.23822372 8.91666483,8.04529087 9.28488372,7.8423913 C9.6569786,7.63224533 9.95251828,7.37409573 10.1715116,7.06793478 C10.390505,6.76177383 10.5,6.39492967 10.5,5.9673913 C10.5,5.40579429 10.2722891,4.93750187 9.81686047,4.5625 C9.36143183,4.18749813 8.76744552,4 8.03488372,4 C7.21705017,4 6.59787032,4.2047081 6.17732558,4.61413043 C5.75678084,5.02355277 5.53100791,5.5217362 5.5,6.10869565 Z M7.90697674,12 C8.14341203,12 8.33623956,11.9293485 8.48546512,11.7880435 C8.63469067,11.6467384 8.70930233,11.4655808 8.70930233,11.2445652 C8.70930233,11.0199264 8.63469067,10.8369572 8.48546512,10.6956522 C8.33623956,10.5543471 8.14341203,10.4836957 7.90697674,10.4836957 C7.67054145,10.4836957 7.47674494,10.5543471 7.3255814,10.6956522 C7.17441785,10.8369572 7.09883721,11.0199264 7.09883721,11.2445652 C7.09883721,11.4655808 7.17441785,11.6467384 7.3255814,11.7880435 C7.47674494,11.9293485 7.67054145,12 7.90697674,12 Z" id="?" stroke-width="0.2" fill="#3BBA00"></path>
        </g>
    </g>
</svg>