<svg width="22" height="19" viewBox="0 0 22 19" fill="none" xmlns="http://www.w3.org/2000/svg">
    <path d="M20.0063 6.90343L18.3196 6.29691C18.9295 5.79907 19.1898 5.0094 19.0032 4.25901C18.6363 2.78469 16.8169 2.22502 15.6674 3.22898L14.5029 4.24606L14.2725 2.72071C14.0447 1.21897 12.285 0.496469 11.047 1.39129C10.428 1.8387 10.0988 2.60998 10.2448 3.39311L8.6546 2.82128C7.87225 2.53989 7.0039 2.93992 6.71908 3.71298L6.03049 5.58222C5.93542 5.8403 6.07011 6.12572 6.33137 6.21962C6.43733 6.2577 14.0858 9.00811 14.1981 9.04848C13.8797 9.04848 6.90876 9.04848 6.60206 9.04848C6.32407 9.04848 6.09871 9.27114 6.09871 9.5458V16.5081C6.09871 17.3307 6.77611 18 7.60874 18H11.6355H13.6489H17.6757C18.5083 18 19.1857 17.3307 19.1857 16.5081V10.8421L19.5751 10.9821C19.8351 11.0757 20.1247 10.944 20.2203 10.6849L20.9089 8.81567C21.1936 8.0426 20.7887 7.1848 20.0063 6.90343ZM11.1321 17.0054H7.60871C7.33115 17.0054 7.10535 16.7823 7.10535 16.5081V10.0431H11.1321V17.0054ZM13.1455 17.0054H12.1388V10.0431H13.1455V17.0054ZM16.3341 3.97419C16.918 3.46416 17.8398 3.75027 18.0256 4.49651C18.2236 5.29215 17.4452 5.98205 16.6661 5.70235C16.0035 5.46405 15.693 5.35239 15.0294 5.11375L16.3341 3.97419ZM11.6414 2.19408C12.2705 1.73939 13.1616 2.10835 13.277 2.8682L13.535 4.57633C13.3493 4.50953 12.0812 4.05348 11.8985 3.98781C11.1193 3.70747 10.9722 2.67771 11.6414 2.19408ZM11.8785 7.15594L7.14864 5.45505L7.6651 4.05315C7.76004 3.79546 8.04949 3.66218 8.31027 3.75592C8.83957 3.94624 12.4039 5.22797 12.5671 5.28668L11.8785 7.15594ZM13.7705 7.83634L12.8245 7.49614L13.5131 5.62691L14.4591 5.96711L13.7705 7.83634ZM18.179 16.5081C18.179 16.7823 17.9532 17.0054 17.6756 17.0054H14.1522V10.0431H16.9639L18.179 10.4801V16.5081H18.179ZM19.9628 8.47543L19.4464 9.87737L14.7165 8.17647L15.4051 6.30724L19.662 7.838C19.9228 7.9318 20.0577 8.21778 19.9628 8.47543Z" fill="#E1576A" stroke="#E35769" stroke-width="0.4"/>
    <rect x="2" y="6" width="1" height="5" rx="0.5" fill="#E1576A"/>
    <rect x="3" y="1" width="1" height="3" rx="0.5" fill="#E1576A"/>
    <rect x="5" y="8" width="1" height="5" rx="0.5" transform="rotate(90 5 8)" fill="#E1576A"/>
    <rect x="5" y="2" width="1" height="3" rx="0.5" transform="rotate(90 5 2)" fill="#E1576A"/>
</svg>
