<?xml version="1.0" encoding="UTF-8"?>
<svg width="16px" height="16px" viewBox="0 0 16 16" version="1.1" xmlns="http://www.w3.org/2000/svg" xmlns:xlink="http://www.w3.org/1999/xlink">
    <!-- Generator: Sketch 48.2 (47327) - http://www.bohemiancoding.com/sketch -->
    <title>setting-icon-16</title>
    <desc>Created with Sketch.</desc>
    <defs></defs>
    <g id="Symbols" stroke="none" stroke-width="1" fill="none" fill-rule="evenodd">
        <g id="setting-icon-16" stroke="#979797" stroke-width="1.2">
            <g id="setting-icon" transform="translate(1.000000, 1.000000)">
                <path d="M7,9.07592178 C5.71343784,9.07592178 4.66666667,8.05771459 4.66666667,6.80625978 C4.66666667,5.55480496 5.71343784,4.53703704 7,4.53703704 C8.28656216,4.53703704 9.33333333,5.55480496 9.33333333,6.80625978 C9.33333333,8.05771459 8.28656216,9.07592178 7,9.07592178 L7,9.07592178 Z M12.3484943,7.686 C12.3772798,7.462 12.3988689,7.238 12.3988689,7 C12.3988689,6.762 12.3772798,6.538 12.3484943,6.314 L13.8669289,5.159 C14.00366,5.054 14.0396419,4.865 13.9532854,4.711 L12.5140109,2.289 C12.4276544,2.135 12.2333523,2.079 12.0750321,2.135 L10.2831354,2.835 C9.90892401,2.555 9.50592714,2.324 9.06694842,2.149 L8.79348626,0.294 C8.77189714,0.126 8.62077332,0 8.44086401,0 L5.56231498,0 C5.38240567,0 5.23128185,0.126 5.20969273,0.294 L4.93623057,2.149 C4.49725185,2.324 4.09425498,2.562 3.72004361,2.835 L1.92814684,2.135 C1.76263027,2.072 1.57552459,2.135 1.48916812,2.289 L0.0498936052,4.711 C-0.0436592381,4.865 -0.000481002712,5.054 0.136250076,5.159 L1.65468469,6.314 C1.6258992,6.538 1.60431008,6.769 1.60431008,7 C1.60431008,7.231 1.6258992,7.462 1.65468469,7.686 L0.136250076,8.841 C-0.000481002712,8.946 -0.0364628655,9.135 0.0498936052,9.289 L1.48916812,11.711 C1.57552459,11.865 1.76982665,11.921 1.92814684,11.865 L3.72004361,11.165 C4.09425498,11.445 4.49725185,11.676 4.93623057,11.851 L5.20969273,13.706 C5.23128185,13.874 5.38240567,14 5.56231498,14 L8.44086401,14 C8.62077332,14 8.77189714,13.874 8.79348626,13.706 L9.06694842,11.851 C9.50592714,11.676 9.90892401,11.438 10.2831354,11.165 L12.0750321,11.865 C12.2405487,11.928 12.4276544,11.865 12.5140109,11.711 L13.9532854,9.289 C14.0396419,9.135 14.00366,8.946 13.8669289,8.841 L12.3484943,7.686 Z" transform="translate(7.000000, 7.000000) rotate(-360.000000) translate(-7.000000, -7.000000) "></path>
            </g>
        </g>
    </g>
</svg>