<?xml version="1.0" encoding="UTF-8"?>
<svg width="16px" height="16px" viewBox="0 0 16 16" version="1.1" xmlns="http://www.w3.org/2000/svg" xmlns:xlink="http://www.w3.org/1999/xlink">
    <!-- Generator: Sketch 48.2 (47327) - http://www.bohemiancoding.com/sketch -->
    <title>speed-icon-16</title>
    <desc>Created with Sketch.</desc>
    <defs></defs>
    <g id="Symbols" stroke="none" stroke-width="1" fill="none" fill-rule="evenodd">
        <g id="speed-icon-16" fill="#979797" fill-rule="nonzero" stroke="#979797" stroke-width="0.4">
            <g id="Group" transform="translate(0.500000, 0.500000)">
                <path d="M14.0015625,3.7684375 C13.3275,2.61125 12.38875,1.6725 11.264375,1.0171875 C10.131875,0.3646875 8.858125,0 7.5,0 C6.141875,0 4.868125,0.3646875 3.7684375,0.9984375 C2.61125,1.6728125 1.6725,2.6115625 1.0171875,3.7359375 C0.3646875,4.8684375 0,6.141875 0,7.5 C0,11.6353125 3.3646875,14.9105212 7.5,14.9105212 C9.5034375,14.9105212 10.9546875,14.578288 12.37125,13.1617255 C12.4934375,13.039538 12.4934375,12.842038 12.37125,12.7198505 C12.2490625,12.597663 12.0515625,12.597663 11.929375,12.7198505 C10.630625,14.018288 9.3365625,14.2855212 7.5,14.2855212 C3.81375,14.2855212 0.796875,11.45875 0.6328125,7.8125 L1.5625,7.8125 C1.7353125,7.8125 1.875,7.6728125 1.875,7.5 C1.875,7.3271875 1.7353125,7.1875 1.5625,7.1875 L0.6328125,7.1875 C0.67875,6.16375 0.950625,5.1984375 1.398125,4.338125 L2.2015625,4.801875 C2.2509375,4.8303125 2.3046875,4.84375 2.3578125,4.84375 C2.4659375,4.84375 2.5709375,4.7875 2.62875,4.6875 C2.715,4.5378125 2.66375,4.346875 2.514375,4.260625 L1.711875,3.7975 C2.24875,2.96125 2.96125,2.24875 3.7975,1.711875 L4.260625,2.514375 C4.31875,2.614375 4.4234375,2.670625 4.5315625,2.670625 C4.5846875,2.670625 4.6384375,2.6571875 4.6875,2.62875 C4.8371875,2.5425 4.8884375,2.35125 4.801875,2.201875 L4.338125,1.3984375 C5.1984375,0.950625 6.16375,0.6790625 7.1875,0.6328125 L7.1875,1.5625 C7.1875,1.7353125 7.3271875,1.875 7.5,1.875 C7.6728125,1.875 7.8125,1.7353125 7.8125,1.5625 L7.8125,0.6328125 C8.83625,0.67875 9.8015625,0.950625 10.661875,1.398125 L10.198125,2.2015625 C10.1115625,2.35125 10.1628125,2.5425 10.3125,2.62875 C10.3615625,2.6571875 10.4153125,2.670625 10.4684375,2.670625 C10.5765625,2.670625 10.6815625,2.614375 10.739375,2.514375 L11.2025,1.711875 C12.03875,2.24875 12.75125,2.96125 13.288125,3.7975 L12.485625,4.260625 C12.3359375,4.346875 12.2846875,4.538125 12.37125,4.6875 C12.429375,4.7875 12.5340625,4.84375 12.6421875,4.84375 C12.6953125,4.84375 12.7490625,4.8303125 12.798125,4.801875 L13.6015625,4.338125 C14.0490625,5.1984375 14.3209375,6.16375 14.366875,7.1875 L13.4375,7.1875 C13.2646875,7.1875 13.125,7.3271875 13.125,7.5 C13.125,7.6728125 13.2646875,7.8125 13.4375,7.8125 L14.36375,7.8125 C14.30875,9.040625 13.9340625,10.22125 13.263125,11.25 L3.4375,11.25 C3.2646875,11.25 3.125,11.3896875 3.125,11.5625 C3.125,11.7353125 3.2646875,11.875 3.4375,11.875 L13.4375,11.875 C13.5546875,11.875 13.661875,11.809375 13.715625,11.7053125 C14.5609375,10.440625 15,8.99625 15,7.5 C15,6.141875 14.6353125,4.8684375 14.0015625,3.7684375 Z" id="Shape"></path>
                <path d="M10.8459375,4.7790625 C10.72375,4.656875 10.52625,4.656875 10.4040625,4.7790625 L8.1290625,7.0540625 C7.6534375,6.785625 7.0121875,6.845 6.61625,7.24125 C6.38,7.4771875 6.25,7.79125 6.25,8.125 C6.25,8.45875 6.38,8.7728125 6.61625,9.00875 C6.7384375,9.1309375 6.9359375,9.1309375 7.058125,9.00875 C7.1803125,8.8865625 7.1803125,8.68875 7.058125,8.566875 C6.94,8.44875 6.875,8.291875 6.875,8.125 C6.875,7.958125 6.94,7.80125 7.058125,7.683125 C7.294375,7.446875 7.705625,7.446875 7.941875,7.683125 C8.06,7.80125 8.125,7.958125 8.125,8.125 C8.125,8.291875 8.06,8.44875 7.941875,8.566875 C7.8196875,8.68875 7.8196875,8.8865625 7.941875,9.00875 C8.0028125,9.0696875 8.0828125,9.1003125 8.1628125,9.1003125 C8.2428125,9.1003125 8.3228125,9.0696875 8.38375,9.00875 C8.62,8.7728125 8.75,8.45875 8.75,8.125 C8.75,7.8984375 8.685625,7.6834375 8.5734375,7.4934375 L10.8459375,5.2209375 C10.968125,5.09875 10.968125,4.90125 10.8459375,4.7790625 Z" id="Shape"></path>
            </g>
        </g>
    </g>
</svg>