<?xml version="1.0" encoding="UTF-8"?>
<svg width="29px" height="36px" viewBox="0 0 29 36" version="1.1" xmlns="http://www.w3.org/2000/svg" xmlns:xlink="http://www.w3.org/1999/xlink">
    <!-- Generator: Sketch 48.2 (47327) - http://www.bohemiancoding.com/sketch -->
    <title>user-manual-icon</title>
    <desc>Created with Sketch.</desc>
    <defs></defs>
    <g id="Katalon-recoder-help-popup" stroke="none" stroke-width="1" fill="none" fill-rule="evenodd" transform="translate(-215.000000, -243.000000)">
        <g id="user-manual-icon" transform="translate(215.000000, 243.000000)" fill="#3BBA00" fill-rule="nonzero">
            <path d="M4.57894737,0 C2.05993029,0 0,2.11243226 0,4.69565217 L0,31.631454 C0,34.1168478 2.16128682,36 4.57894737,36 L29,36 L29,34.4347826 L4.57894737,34.4347826 C2.93040726,34.4347826 1.52631579,33.1661003 1.52631579,31.631454 C1.52631579,30.0968069 2.90059603,28.9565217 4.57894737,28.9565217 L29,28.9565217 L29,0 L4.57894737,0 Z M4.57894737,1.56521739 L27.4736842,1.56521739 L27.4736842,27.3913043 L4.57894737,27.3913043 C3.44017308,27.3913043 2.36101974,27.8131797 1.52631579,28.5010192 L1.52631579,4.69565217 C1.52631579,2.95923913 2.88569079,1.56521739 4.57894737,1.56521739 Z M6.86842105,5.47826087 C6.03371711,5.47826087 5.34210526,6.1875 5.34210526,7.04347826 L5.34210526,10.173913 C5.34210526,11.0298913 6.03371711,11.7391304 6.86842105,11.7391304 L22.8947368,11.7391304 C23.7294408,11.7391304 24.4210526,11.0298913 24.4210526,10.173913 L24.4210526,7.04347826 C24.4210526,6.1875 23.7294408,5.47826087 22.8947368,5.47826087 L6.86842105,5.47826087 Z M6.86842105,7.04347826 L22.8947368,7.04347826 L22.8947368,10.173913 L6.86842105,10.173913 L6.86842105,7.04347826 Z" id="Shape"></path>
        </g>
    </g>
</svg>