<?xml version="1.0" encoding="UTF-8"?>
<svg width="24px" height="22px" viewBox="0 0 24 22" version="1.1" xmlns="http://www.w3.org/2000/svg" xmlns:xlink="http://www.w3.org/1999/xlink">
    <!-- Generator: Sketch 47.1 (45422) - http://www.bohemiancoding.com/sketch -->
    <title>web-icon</title>
    <desc>Created with Sketch.</desc>
    <defs></defs>
    <g id="Katalon-Recorder" stroke="none" stroke-width="1" fill="none" fill-rule="evenodd">
        <g id="Katalon-recoder-new-icon" transform="translate(-676.000000, -59.000000)" stroke="#979797">
            <g id="web-icon" transform="translate(676.000000, 58.000000)">
                <path d="M12.173001,22.173001 C12.52767,22.173001 12.8780265,22.1545372 13.2231617,22.1185183 C18.2524167,21.5936566 22.173001,17.3411796 22.173001,12.173001 C22.173001,6.65015352 17.6958485,2.17300102 12.173001,2.17300102 C6.65015352,2.17300102 2.17300102,6.65015352 2.17300102,12.173001 C2.17300102,17.3549721 6.11453937,21.6163476 11.1631293,22.1226407 C11.4952318,22.1559453 11.8321246,22.173001 12.173001,22.173001 Z" id="Oval" transform="translate(12.173001, 12.173001) rotate(-91.000000) translate(-12.173001, -12.173001) "></path>
                <path d="M22.7539956,16.1287257 C24.2638378,15.4110281 24.607285,14.967029 24.607285,14.2077766 C24.607285,12.1280313 18.7825485,10.4420646 11.597372,10.4420646 C4.41219536,10.4420646 -1.41254113,12.1280313 -1.41254113,14.2077766 C-1.41254113,14.9111199 -0.746362647,15.5694264 0.413321297,16.1327162" id="Oval-2" transform="translate(11.597372, 13.287390) rotate(-149.000000) translate(-11.597372, -13.287390) "></path>
            </g>
        </g>
    </g>
</svg>