<svg width="16" height="16" viewBox="0 0 16 16" fill="none" xmlns="http://www.w3.org/2000/svg">
<path d="M5.87151 0H3.97824C2.95902 0 2.13707 0.818519 2.13707 1.76296V5.16667C2.13707 5.51296 1.97268 5.82778 1.74254 6.04815L0.263024 7.46481C0.0986341 7.62222 0 7.81111 0 8C0 8.22037 0.0986341 8.40926 0.263024 8.53518L1.74254 9.98333C1.97268 10.2037 2.10419 10.5185 2.13707 10.8648V14.237C2.13707 15.213 2.95902 16 3.97824 16H5.87151C6.13453 16 6.39756 15.7796 6.39756 15.4963V14.9926C6.39756 14.7407 6.13453 14.4889 5.87151 14.4889H3.97824C3.81385 14.4889 3.71522 14.3944 3.71522 14.237V10.8648C3.68234 10.1093 3.38644 9.41667 2.86039 8.91296L1.90693 8L2.86039 7.11852C3.38644 6.61481 3.68234 5.92222 3.71522 5.16667V1.76296C3.71522 1.63704 3.81385 1.51111 3.97824 1.51111H5.87151C6.13453 1.51111 6.39756 1.29074 6.39756 1.00741V0.503704C6.39756 0.251852 6.13453 0 5.87151 0ZM15.7699 7.46481L14.2575 6.04815C14.0273 5.82778 13.8958 5.51296 13.8958 5.16667V1.76296C13.8958 0.818519 13.041 0 12.0546 0H10.1614C9.86547 0 9.63532 0.251852 9.63532 0.503704V1.00741C9.63532 1.29074 9.86547 1.51111 10.1614 1.51111H12.0546C12.1861 1.51111 12.3177 1.63704 12.3177 1.76296V5.16667C12.3177 5.92222 12.6136 6.61481 13.1396 7.11852L14.0931 8L13.1396 8.91296C12.6136 9.41667 12.3177 10.1093 12.3177 10.8648V14.237C12.3177 14.3944 12.1861 14.4889 12.0546 14.4889H10.1614C9.86547 14.4889 9.63532 14.7407 9.63532 14.9926V15.4963C9.63532 15.7796 9.86547 16 10.1614 16H12.0546C13.041 16 13.8958 15.213 13.8958 14.237V10.8648C13.8958 10.5185 14.0273 10.2037 14.2575 9.98333L15.7699 8.53518C15.9014 8.40926 16 8.22037 16 8.03148C16 7.81111 15.9014 7.62222 15.7699 7.46481Z" fill="#434343"/>
</svg>
