<svg width="16" height="16" viewBox="0 0 16 16" fill="none" xmlns="http://www.w3.org/2000/svg">
<path d="M8 0.25C3.71875 0.25 0.25 3.71875 0.25 8C0.25 12.2812 3.71875 15.75 8 15.75C12.2812 15.75 15.75 12.2812 15.75 8C15.75 3.71875 12.2812 0.25 8 0.25ZM8 14.25C4.53125 14.25 1.75 11.4688 1.75 8C1.75 4.5625 4.53125 1.75 8 1.75C11.4375 1.75 14.25 4.5625 14.25 8C14.25 11.4688 11.4375 14.25 8 14.25ZM11 5.5C11 5.25 10.75 5 10.5 5H9C8.71875 5 8.5 5.25 8.5 5.5V10.5C8.5 10.7812 8.71875 11 9 11H10.5C10.75 11 11 10.7812 11 10.5V5.5ZM7.5 5.5C7.5 5.25 7.25 5 7 5H5.5C5.21875 5 5 5.25 5 5.5V10.5C5 10.7812 5.21875 11 5.5 11H7C7.25 11 7.5 10.7812 7.5 10.5V5.5Z" fill="#434343"/>
</svg>
