<svg id="Layer_1" data-name="Layer 1" xmlns="http://www.w3.org/2000/svg" xmlns:xlink="http://www.w3.org/1999/xlink" viewBox="0 0 1280.24 421.9"><defs><style>.cls-1,.cls-2{fill:none;}.cls-2{clip-rule:evenodd;}.cls-3{fill:#414141;}.cls-4{fill:#6cb645;}.cls-5{fill:#00a1df;}.cls-6{fill:#9aca3c;}.cls-7{clip-path:url(#clip-path);}.cls-8{clip-path:url(#clip-path-2);}.cls-9{clip-path:url(#clip-path-3);}.cls-10{clip-path:url(#clip-path-4);}.cls-11{clip-path:url(#clip-path-5);}.cls-12{clip-path:url(#clip-path-6);}.cls-13{clip-path:url(#clip-path-7);}.cls-14{clip-path:url(#clip-path-8);}.cls-15{clip-path:url(#clip-path-9);}.cls-16{clip-path:url(#clip-path-10);}.cls-17{clip-path:url(#clip-path-11);}.cls-18{clip-path:url(#clip-path-12);}.cls-19{clip-path:url(#clip-path-13);}.cls-20{clip-path:url(#clip-path-14);}.cls-21{clip-path:url(#clip-path-15);}.cls-22{clip-path:url(#clip-path-16);}.cls-23{clip-path:url(#clip-path-17);}.cls-24{clip-path:url(#clip-path-18);}.cls-25{clip-path:url(#clip-path-19);}.cls-26{clip-path:url(#clip-path-20);}.cls-27{clip-path:url(#clip-path-21);}.cls-28{clip-path:url(#clip-path-22);}.cls-29{clip-path:url(#clip-path-23);}.cls-30{clip-path:url(#clip-path-24);}.cls-31{clip-path:url(#clip-path-25);}</style><clipPath id="clip-path" transform="translate(39.89)"><rect class="cls-1" y="284.46" width="8.62" height="70.85"/></clipPath><clipPath id="clip-path-2" transform="translate(39.89)"><path class="cls-2" d="M23.48,305.55h8.21v6.23H31.9a19.11,19.11,0,0,1,15.69-7.89c9,0,19.63,5.61,19.63,22.43v29H59V326.85c0-10.08-4.88-15.59-12.68-15.59-8.93,0-14.65,6-14.65,17.56v26.49H23.48V305.55Z"/></clipPath><clipPath id="clip-path-3" transform="translate(39.89)"><path class="cls-2" d="M75.54,305.55h6.54V289.66h8.21v15.89h13.3v6.86H90.29v26.29c0,8.1,2.5,10.28,7.79,10.28a22.89,22.89,0,0,0,6-.83v6.75a24.44,24.44,0,0,1-7.69,1c-12.05,0-14.34-8.11-14.34-17.57v-26H75.54v-6.86Z"/></clipPath><clipPath id="clip-path-4" transform="translate(39.89)"><path class="cls-2" d="M159.07,329.75a23,23,0,0,1-.21,3H118.24c0,9,8.31,17,17.66,17a15.22,15.22,0,0,0,12.78-6h9.45a24.34,24.34,0,0,1-22,13.3c-15.79,0-26.39-11.85-26.39-27.33,0-13.7,9.66-25.86,24.73-25.86,18.08,0.1,24.62,15,24.62,25.86m-40.72-3.84h32.11c-0.84-7.79-7-14.85-16-14.85-9.45,0-15.38,7.27-16.11,14.85"/></clipPath><clipPath id="clip-path-5" transform="translate(39.89)"><rect class="cls-1" x="169.98" y="280.51" width="8.21" height="74.8"/></clipPath><clipPath id="clip-path-6" transform="translate(39.89)"><rect class="cls-1" x="192.53" y="280.51" width="8.21" height="74.8"/></clipPath><clipPath id="clip-path-7" transform="translate(39.89)"><path class="cls-2" d="M214.14,293.59h10.18v-9.66H214.14v9.66Zm0.93,61.71h8.21V305.54h-8.21v49.76Z"/></clipPath><clipPath id="clip-path-8" transform="translate(39.89)"><path class="cls-2" d="M286.35,353.75c0,18-8.31,28.26-25.66,28.26-13.82,0-22.44-7.69-24.52-19h8.31c1.77,6.65,6.34,11.85,16.52,11.85,11.11,0,17.14-7.28,17.14-20.05v-6.33h-0.21a23.16,23.16,0,0,1-18.18,8.62c-13.62,0-25.56-10.5-25.56-26.7,0-15.38,10.9-26.49,25.46-26.49a22.83,22.83,0,0,1,18.28,8.83h0.21v-7.17h8.21v48.21Zm-25.56-3.95c9.66,0,18.08-7.9,18.08-19.11,0-11.85-7.9-19.64-17.87-19.64-12.16,0-18.39,9.77-18.39,19.33S248.84,349.81,260.79,349.81Z"/></clipPath><clipPath id="clip-path-9" transform="translate(39.89)"><path class="cls-2" d="M346.61,329.75a23,23,0,0,1-.21,3H305.78c0,9,8.31,17,17.66,17a15.22,15.22,0,0,0,12.78-6h9.45a24.34,24.34,0,0,1-22,13.3c-15.79,0-26.39-11.85-26.39-27.33,0-13.7,9.66-25.86,24.73-25.86,18.08,0.1,24.62,15,24.62,25.86m-40.72-3.84H338c-0.84-7.79-7-14.85-16-14.85-9.45,0-15.38,7.27-16.11,14.85"/></clipPath><clipPath id="clip-path-10" transform="translate(39.89)"><path class="cls-2" d="M357.52,305.55h8.21v6.23h0.21a19.11,19.11,0,0,1,15.69-7.89c9,0,19.63,5.61,19.63,22.43v29h-8.21V326.85c0-10.08-4.88-15.59-12.68-15.59-8.93,0-14.65,6-14.65,17.56v26.49h-8.21V305.55Z"/></clipPath><clipPath id="clip-path-11" transform="translate(39.89)"><path class="cls-2" d="M409.58,305.55h6.54V289.66h8.21v15.89h13.3v6.86h-13.3v26.29c0,8.1,2.5,10.28,7.79,10.28a22.78,22.78,0,0,0,6-.83v6.75a24.35,24.35,0,0,1-7.68,1c-12.05,0-14.34-8.11-14.34-17.57v-26h-6.54v-6.86Z"/></clipPath><clipPath id="clip-path-12" transform="translate(39.89)"><polygon class="cls-2" points="487.09 292.35 468.49 292.35 468.49 284.46 514.31 284.46 514.31 292.35 495.71 292.35 495.71 355.31 487.09 355.31 487.09 292.35"/></clipPath><clipPath id="clip-path-13" transform="translate(39.89)"><path class="cls-2" d="M560.54,329.75a23,23,0,0,1-.21,3H519.71c0,9,8.31,17,17.66,17a15.22,15.22,0,0,0,12.78-6h9.45a24.34,24.34,0,0,1-22,13.3c-15.79,0-26.39-11.85-26.39-27.33,0-13.7,9.66-25.86,24.73-25.86,18.08,0.1,24.62,15,24.62,25.86m-40.72-3.84h32.1c-0.83-7.79-7-14.85-16-14.85-9.45,0-15.38,7.27-16.11,14.85"/></clipPath><clipPath id="clip-path-14" transform="translate(39.89)"><path class="cls-2" d="M594.83,317.5a8.22,8.22,0,0,0-8-6.65c-5.09,0-7.9,3-7.9,6.65,0,3.12,1.46,5.71,10.5,8.62,11,3.53,14.44,9.25,14.44,15.89,0,9.14-6.65,15.07-16.83,15.07-11,0-16.51-6.44-18.08-15.07h8.31c0.93,4.36,3.95,8,10.08,8,5.51,0,8.31-3.21,8.31-7.37s-1.87-7.07-11.11-10.08-13.71-7.7-13.71-15.17c0-7.28,5.4-13.51,15.58-13.51s15.07,6.23,16.73,13.61h-8.31Z"/></clipPath><clipPath id="clip-path-15" transform="translate(39.89)"><path class="cls-2" d="M609.69,305.55h6.54V289.66h8.21v15.89h13.3v6.86h-13.3v26.29c0,8.1,2.5,10.28,7.79,10.28a22.78,22.78,0,0,0,6-.83v6.75a24.35,24.35,0,0,1-7.68,1c-12.05,0-14.34-8.11-14.34-17.57v-26h-6.54v-6.86Z"/></clipPath><clipPath id="clip-path-16" transform="translate(39.89)"><path class="cls-2" d="M696.76,284.46h7.69l28,70.85H723l-7.28-19.11H684.39L677,355.31h-9.15Zm-9.45,44.05h25.56l-7.48-20c-1.45-3.85-3.64-10.18-4.88-14.34h-0.41c-1.35,4.36-3.53,10.39-5.09,14.44Z"/></clipPath><clipPath id="clip-path-17" transform="translate(39.89)"><path class="cls-2" d="M780.6,355.31H772.4v-6.13h-0.21c-4.36,5.92-9.87,7.89-15.06,7.89-8.73,0-18.91-5.61-18.91-22.44V305.55h8.21V334c0,10.08,4.78,15.58,12.05,15.58,8.52,0,13.92-5.92,13.92-17.45v-26.6h8.21v49.76Z"/></clipPath><clipPath id="clip-path-18" transform="translate(39.89)"><path class="cls-2" d="M789.54,305.55h6.54V289.66h8.21v15.89h13.3v6.86h-13.3v26.29c0,8.1,2.5,10.28,7.79,10.28a22.78,22.78,0,0,0,6-.83v6.75a24.35,24.35,0,0,1-7.68,1c-12.05,0-14.34-8.11-14.34-17.57v-26h-6.54v-6.86Z"/></clipPath><clipPath id="clip-path-19" transform="translate(39.89)"><path class="cls-2" d="M850.32,303.89c15.48,0,26.6,11.42,26.6,26.49,0,14.65-11.22,26.7-26.6,26.7a26.22,26.22,0,0,1-26.6-26.7c0-15.38,11.64-26.49,26.6-26.49m0,45.71c10.5,0,18.08-8.31,18.08-19.22,0-10.5-7.16-19.12-18.08-19.12-10.59,0-18.08,8.11-18.08,19.12,0,11.22,8.52,19.22,18.08,19.22"/></clipPath><clipPath id="clip-path-20" transform="translate(39.89)"><path class="cls-2" d="M887.83,305.55H896v6.23h0.21c3.33-4.47,8.42-7.89,14.85-7.89,7.79,0,14.14,4.46,16.21,10.28a19.17,19.17,0,0,1,17.14-10.28c11.22,0,19,7.79,19,22.43v29h-8.2v-29.6c0-7.69-3.53-14.45-11.95-14.45-7,0-13.51,5-13.51,16.42v27.63H921.5v-29.6c0-8.21-4.47-14.45-11.85-14.45-8.31,0-13.61,6-13.61,16.42v27.63h-8.21V305.55Z"/></clipPath><clipPath id="clip-path-21" transform="translate(39.89)"><path class="cls-2" d="M1025.91,355.31h-8.21v-6.65h-0.21a23.36,23.36,0,0,1-18.18,8.42c-13.51,0-25.56-10.5-25.56-26.7,0-15.38,11.22-26.49,26.08-26.49,9,0,14.34,4.78,17.77,8.83h0.1v-7.17h8.21v49.76Zm-25.46-5.5c9.35,0,18-7.9,18-19.11,0-11.85-8-19.64-17.77-19.64-12.47,0-18.39,9.77-18.39,19.33S988.2,349.81,1000.46,349.81Z"/></clipPath><clipPath id="clip-path-22" transform="translate(39.89)"><path class="cls-2" d="M1034.85,305.55h6.54V289.66h8.21v15.89h13.3v6.86h-13.3v26.29c0,8.1,2.5,10.28,7.79,10.28a22.89,22.89,0,0,0,6-.83v6.75a24.44,24.44,0,0,1-7.69,1c-12.05,0-14.34-8.11-14.34-17.57v-26h-6.54v-6.86Z"/></clipPath><clipPath id="clip-path-23" transform="translate(39.89)"><path class="cls-2" d="M1072.57,293.59h10.18v-9.66h-10.18v9.66Zm0.93,61.71h8.21V305.54h-8.21v49.76Z"/></clipPath><clipPath id="clip-path-24" transform="translate(39.89)"><path class="cls-2" d="M1119.22,303.89c15.48,0,26.6,11.42,26.6,26.49,0,14.65-11.22,26.7-26.6,26.7a26.22,26.22,0,0,1-26.6-26.7c0-15.38,11.64-26.49,26.6-26.49m0,45.71c10.49,0,18.08-8.31,18.08-19.22,0-10.5-7.17-19.12-18.08-19.12-10.6,0-18.08,8.11-18.08,19.12,0,11.22,8.52,19.22,18.08,19.22"/></clipPath><clipPath id="clip-path-25" transform="translate(39.89)"><path class="cls-2" d="M1156.73,305.55h8.21v6.23h0.21a19.11,19.11,0,0,1,15.69-7.89c9,0,19.63,5.61,19.63,22.43v29h-8.21V326.85c0-10.08-4.88-15.59-12.68-15.59-8.93,0-14.65,6-14.65,17.56v26.49h-8.21V305.55Z"/></clipPath></defs><title>logo katalon</title><g id="_Group_" data-name="&lt;Group&gt;"><path id="_Compound_Path_" data-name="&lt;Compound Path&gt;" class="cls-3" d="M364.81,117.68l-18.73,19.53v67.54h-21.9V24.81h21.9v84.43l81-84.43h29l-75.46,76.78,84.43,103.16H436Z" transform="translate(39.89)"/><path id="_Compound_Path_2" data-name="&lt;Compound Path&gt;" class="cls-3" d="M598.85,204.75H578V187.86h-0.53a59.31,59.31,0,0,1-46.17,21.37c-34.3,0-64.91-26.65-64.91-67.81,0-39,28.49-67.28,66.23-67.28,23,0,36.41,12.14,45.12,22.43H578V78.37h20.84V204.75Zm-64.64-14c23.75,0,45.65-20.05,45.65-48.55,0-30.08-20.32-49.87-45.12-49.87-31.66,0-46.7,24.8-46.7,49.08S503.07,190.77,534.2,190.77Z" transform="translate(39.89)"/><path id="_Compound_Path_3" data-name="&lt;Compound Path&gt;" class="cls-3" d="M621.55,78.37h16.62V38H659V78.37h33.77V95.78H659v66.75c0,20.58,6.33,26.12,19.79,26.12a58,58,0,0,0,15.3-2.11v17.15c-5.54,1.85-12.14,2.64-19.52,2.64-30.61,0-36.41-20.58-36.41-44.59v-66H621.55V78.37Z" transform="translate(39.89)"/><path id="_Compound_Path_4" data-name="&lt;Compound Path&gt;" class="cls-3" d="M840.8,204.75H820V187.86h-0.53a59.31,59.31,0,0,1-46.17,21.37c-34.3,0-64.91-26.65-64.91-67.81,0-39,28.49-67.28,66.23-67.28,23,0,36.41,12.14,45.12,22.43H820V78.37H840.8V204.75Zm-64.64-14c23.75,0,45.65-20.05,45.65-48.55,0-30.08-20.32-49.87-45.12-49.87-31.66,0-46.7,24.8-46.7,49.08S745,190.77,776.16,190.77Z" transform="translate(39.89)"/><path id="_Compound_Path_5" data-name="&lt;Compound Path&gt;" class="cls-3" d="M877.22,24.81h20.84V204.75H877.22V24.81Z" transform="translate(39.89)"/><path id="_Compound_Path_6" data-name="&lt;Compound Path&gt;" class="cls-3" d="M993.31,74.15c39.31,0,67.54,29,67.54,67.28,0,37.2-28.49,67.81-67.54,67.81-38.26,0-67.54-29.55-67.54-67.81C925.77,102.38,955.32,74.15,993.31,74.15Zm0,116.09c26.65,0,45.91-21.11,45.91-48.81,0-26.65-18.21-48.55-45.91-48.55-26.91,0-45.91,20.58-45.91,48.55C947.4,169.92,969,190.24,993.31,190.24Z" transform="translate(39.89)"/><path id="_Compound_Path_7" data-name="&lt;Compound Path&gt;" class="cls-3" d="M1088.57,78.37h20.84V94.2h0.53c11.61-15,26.12-20.05,39.84-20.05,23,0,49.87,14.25,49.87,57v73.61h-20.84v-72.3c0-25.59-12.4-39.57-32.19-39.57-22.69,0-37.2,15.31-37.2,44.59v67.28h-20.84V78.37Z" transform="translate(39.89)"/></g><g id="_Group_2" data-name="&lt;Group&gt;"><rect id="_Rectangle_" data-name="&lt;Rectangle&gt;" class="cls-4" x="40.59" width="89.34" height="238.25"/><g id="_Group_3" data-name="&lt;Group&gt;"><polygon id="_Path_" data-name="&lt;Path&gt;" class="cls-5" points="204.45 119.24 129.93 0 40.59 0 159.78 190.71 204.45 119.24"/><polygon id="_Path_2" data-name="&lt;Path&gt;" class="cls-5" points="211.9 131.15 167.22 202.62 189.49 238.25 278.84 238.25 211.9 131.15"/></g><polygon id="_Path_3" data-name="&lt;Path&gt;" class="cls-6" points="40.59 238.25 129.93 238.25 278.84 0 189.49 0 40.59 238.25"/></g><g class="cls-7"><rect class="cls-3" y="244.57" width="88.4" height="150.63"/></g><g class="cls-8"><rect class="cls-3" x="23.48" y="264" width="123.51" height="131.19"/></g><g class="cls-9"><rect class="cls-3" x="75.54" y="249.77" width="108.35" height="146.06"/></g><g class="cls-10"><rect class="cls-3" x="109.72" y="264" width="129.12" height="132.97"/></g><g class="cls-11"><rect class="cls-3" x="169.98" y="240.63" width="87.98" height="154.58"/></g><g class="cls-12"><rect class="cls-3" x="192.53" y="240.63" width="87.98" height="154.58"/></g><g class="cls-13"><rect class="cls-3" x="214.14" y="244.05" width="89.95" height="151.15"/></g><g class="cls-14"><rect class="cls-3" x="234.2" y="264" width="131.93" height="157.9"/></g><g class="cls-15"><rect class="cls-3" x="297.26" y="264" width="129.12" height="132.97"/></g><g class="cls-16"><rect class="cls-3" x="357.52" y="264" width="123.51" height="131.19"/></g><g class="cls-17"><rect class="cls-3" x="409.58" y="249.77" width="108.34" height="146.06"/></g><g class="cls-18"><rect class="cls-3" x="468.49" y="244.57" width="125.59" height="150.63"/></g><g class="cls-19"><rect class="cls-3" x="511.19" y="264" width="129.12" height="132.97"/></g><g class="cls-20"><rect class="cls-3" x="568.96" y="264" width="114.68" height="132.97"/></g><g class="cls-21"><rect class="cls-3" x="609.69" y="249.77" width="108.34" height="146.06"/></g><g class="cls-22"><rect class="cls-3" x="667.87" y="244.57" width="144.4" height="150.63"/></g><g class="cls-23"><rect class="cls-3" x="738.21" y="265.66" width="122.16" height="131.3"/></g><g class="cls-24"><rect class="cls-3" x="789.54" y="249.77" width="108.34" height="146.06"/></g><g class="cls-25"><rect class="cls-3" x="823.73" y="264" width="132.97" height="132.97"/></g><g class="cls-26"><rect class="cls-3" x="887.83" y="264" width="155.41" height="131.19"/></g><g class="cls-27"><rect class="cls-3" x="973.76" y="264" width="131.93" height="132.97"/></g><g class="cls-28"><rect class="cls-3" x="1034.85" y="249.77" width="108.35" height="146.06"/></g><g class="cls-29"><rect class="cls-3" x="1072.57" y="244.05" width="89.95" height="151.15"/></g><g class="cls-30"><rect class="cls-3" x="1092.62" y="264" width="132.97" height="132.97"/></g><g class="cls-31"><rect class="cls-3" x="1156.73" y="264" width="123.51" height="131.19"/></g></svg>