<?xml version="1.0" encoding="UTF-8"?>
<svg width="16px" height="16px" viewBox="0 0 16 16" version="1.1" xmlns="http://www.w3.org/2000/svg" xmlns:xlink="http://www.w3.org/1999/xlink">
    <!-- Generator: Sketch 48.2 (47327) - http://www.bohemiancoding.com/sketch -->
    <title>delete-icon</title>
    <desc>Created with Sketch.</desc>
    <defs></defs>
    <g id="Symbols" stroke="none" stroke-width="1" fill="none" fill-rule="evenodd">
        <g id="delete-icon" fill="#76787B" fill-rule="nonzero" stroke="#76787B" stroke-width="0.3">
            <path d="M6.81819518,12.8657677 C6.82029688,12.8657677 6.82223692,12.8657677 6.82433862,12.8657677 C7.00282187,12.8625498 7.14492945,12.7229543 7.14169606,12.5536316 L6.98002646,4.31244254 C6.97663139,4.14327306 6.82821869,4.00444376 6.65070547,4.01179896 C6.47222222,4.01501686 6.33011464,4.15461232 6.33334803,4.32393503 L6.49501764,12.5651241 C6.4984127,12.7323016 6.64262199,12.8657677 6.81819518,12.8657677 Z M9.18261317,12.8657677 C9.35834803,12.8657677 9.50255732,12.7323016 9.50579071,12.5649709 L9.66746032,4.3237818 C9.67085538,4.15461232 9.5287478,4.01486362 9.35010288,4.01164572 C9.34800118,4.01164572 9.34606114,4.01164572 9.34395944,4.01164572 C9.16822457,4.01164572 9.02401529,4.14511186 9.02078189,4.31244254 L8.85911229,12.5536316 C8.85571723,12.7228011 8.99782481,12.8625498 9.17646972,12.8657677 C9.17857143,12.8657677 9.18067313,12.8657677 9.18261317,12.8657677 Z M12.3587743,4.01179896 C12.1736626,4.00888753 12.0309083,4.13913576 12.0252499,4.30830524 L11.7015873,13.8398713 C11.7015873,14.1417407 11.4427543,14.3873736 11.1249118,14.3873736 L4.87654321,14.3873736 C4.55789242,14.3873736 4.29889771,14.1417407 4.29873604,13.8299111 L3.97539683,4.30799877 C3.96957672,4.1388293 3.82375073,4.00796813 3.64187243,4.01149249 C3.46338918,4.01700889 3.3233833,4.15844315 3.32904174,4.32761263 L3.65221928,13.8395648 C3.65221928,14.4794667 4.20141093,15 4.87654321,15 L11.1249118,15 C11.7995591,15 12.3482657,14.4794667 12.3481041,13.8493717 L12.6714433,4.32745939 C12.6772634,4.15874962 12.5370958,4.01716212 12.3587743,4.01179896 Z M13.1766608,2.47946675 L10.5724868,2.47946675 L10.3024985,1.24425375 C10.271458,1.10205333 10.1392122,1 9.98594944,1 L6.01534392,1 C5.86208113,1 5.72983539,1.10205333 5.69879483,1.24425375 L5.42880658,2.47946675 L2.82333921,2.47946675 C2.64485597,2.47946675 2.5,2.61676371 2.5,2.78593319 C2.5,2.95510267 2.64485597,3.09239963 2.82333921,3.09239963 L5.69135802,3.09239963 C5.69135802,3.09239963 5.69151969,3.09239963 5.69168136,3.09239963 L10.3079953,3.09239963 C10.3083186,3.09239963 10.308642,3.09239963 10.3089653,3.09239963 C10.309127,3.09239963 10.3094503,3.09239963 10.3097737,3.09239963 L13.1766608,3.09239963 C13.355144,3.09239963 13.5,2.95510267 13.5,2.78593319 C13.5,2.61676371 13.355144,2.47946675 13.1766608,2.47946675 Z M6.08922693,2.47946675 L6.2787037,1.61293288 L9.72291299,1.61293288 L9.91238977,2.47946675 L6.08922693,2.47946675 Z" id="Shape"></path>
        </g>
    </g>
</svg>