<?xml version="1.0" encoding="UTF-8"?>
<svg width="16px" height="16px" viewBox="0 0 16 16" version="1.1" xmlns="http://www.w3.org/2000/svg" xmlns:xlink="http://www.w3.org/1999/xlink">
    <!-- Generator: Sketch 48.2 (47327) - http://www.bohemiancoding.com/sketch -->
    <title>edit-icon</title>
    <desc>Created with Sketch.</desc>
    <defs></defs>
    <g id="Symbols" stroke="none" stroke-width="1" fill="none" fill-rule="evenodd">
        <g id="edit-icon" stroke="#76787B">
            <path d="M14.9168336,3.0625272 L12.9208395,1.06653314 C12.8543064,1.04435542 12.7877732,1 12.7212401,1 C12.6325293,1 12.5881738,1.02217771 12.5216407,1.08871085 L5.86832714,7.74202441 C5.84614943,7.76420212 5.801794,7.83073525 5.77961629,7.85291297 L5.00339638,10.6251269 C4.98121867,10.7581932 5.06992951,10.9356149 5.20299578,10.9577926 C5.2251735,10.9577926 5.26952892,10.9577926 5.29170663,10.9577926 C5.31388434,10.9577926 5.35823977,10.9577926 5.38041748,10.9577926 L8.15263146,10.1815727 C8.2191646,10.1815727 8.24134231,10.159395 8.26352002,10.0928619 L14.9168336,3.43954831 C15.0277221,3.32865975 15.0277221,3.17341576 14.9168336,3.0625272 Z M5.66872773,10.3368167 L6.20099282,8.45171119 L7.55383324,9.80455161 L5.66872773,10.3368167 Z M8.08609833,9.56059678 L6.46712536,7.94162381 L12.7212401,1.68750907 L14.3402131,3.30648203 L8.08609833,9.56059678 Z" id="Shape" stroke-width="0.5" fill="#76787B" fill-rule="nonzero"></path>
            <path d="M6.46530614,1.5 L13.2180574,1.5 C13.6638168,1.5 13.8254599,1.54641281 13.9884229,1.63356635 C14.1513858,1.7207199 14.2792801,1.84861419 14.3664336,2.01157715 C14.4535872,2.17454011 14.5,2.33618323 14.5,2.7819426 L14.5,13.2180574 C14.5,13.6638168 14.4535872,13.8254599 14.3664336,13.9884229 C14.2792801,14.1513858 14.1513858,14.2792801 13.9884229,14.3664336 C13.8254599,14.4535872 13.6638168,14.5 13.2180574,14.5 L2.7819426,14.5 C2.33618323,14.5 2.17454011,14.4535872 2.01157715,14.3664336 C1.84861419,14.2792801 1.7207199,14.1513858 1.63356635,13.9884229 C1.54641281,13.8254599 1.5,13.6638168 1.5,13.2180574 L1.5,6.33366756" id="Rectangle-9" stroke-width="1.1" stroke-linecap="round" transform="translate(8.000000, 8.000000) rotate(-270.000000) translate(-8.000000, -8.000000) "></path>
        </g>
    </g>
</svg>