<svg width="14" height="15" viewBox="0 0 14 15" fill="none" xmlns="http://www.w3.org/2000/svg">
<path d="M7 0.96875C3.25391 0.96875 0.21875 4.03125 0.21875 7.75C0.21875 11.4961 3.25391 14.5312 7 14.5312C10.7188 14.5312 13.7812 11.4961 13.7812 7.75C13.7812 4.03125 10.7188 0.96875 7 0.96875ZM7 13.2188C3.96484 13.2188 1.53125 10.7852 1.53125 7.75C1.53125 4.74219 3.96484 2.28125 7 2.28125C10.0078 2.28125 12.4688 4.74219 12.4688 7.75C12.4688 10.7852 10.0078 13.2188 7 13.2188ZM8.14844 10.375C8.14844 9.74609 7.62891 9.22656 7 9.22656C6.34375 9.22656 5.85156 9.74609 5.85156 10.375C5.85156 11.0312 6.34375 11.5234 7 11.5234C7.62891 11.5234 8.14844 11.0312 8.14844 10.375ZM5.90625 4.60547L6.09766 8.32422C6.09766 8.48828 6.26172 8.625 6.42578 8.625H7.54688C7.71094 8.625 7.875 8.48828 7.875 8.32422L8.06641 4.60547C8.06641 4.41406 7.92969 4.25 7.73828 4.25H6.23438C6.04297 4.25 5.90625 4.41406 5.90625 4.60547Z" fill="#8C8C8C"/>
</svg>
