<?xml version="1.0" encoding="UTF-8"?>
<svg width="28px" height="28px" viewBox="0 0 28 28" version="1.1" xmlns="http://www.w3.org/2000/svg" xmlns:xlink="http://www.w3.org/1999/xlink">
    <!-- Generator: Sketch 48.2 (47327) - http://www.bohemiancoding.com/sketch -->
    <title>find-icon-hover</title>
    <desc>Created with Sketch.</desc>
    <defs>
        <rect id="path-1" x="0" y="0" width="28" height="28" rx="3"></rect>
        <filter x="-5.4%" y="-5.4%" width="110.7%" height="110.7%" filterUnits="objectBoundingBox" id="filter-2">
            <feGaussianBlur stdDeviation="1.5" in="SourceAlpha" result="shadowBlurInner1"></feGaussianBlur>
            <feOffset dx="0" dy="0" in="shadowBlurInner1" result="shadowOffsetInner1"></feOffset>
            <feComposite in="shadowOffsetInner1" in2="SourceAlpha" operator="arithmetic" k2="-1" k3="1" result="shadowInnerInner1"></feComposite>
            <feColorMatrix values="0 0 0 0 0.896045918   0 0 0 0 0.896045918   0 0 0 0 0.896045918  0 0 0 0.5 0" type="matrix" in="shadowInnerInner1"></feColorMatrix>
        </filter>
    </defs>
    <g id="Symbols" stroke="none" stroke-width="1" fill="none" fill-rule="evenodd">
        <g id="find-icon-hover">
            <g id="find-icon">
                <g id="Rectangle-4-Copy-3">
                    <use fill="#FBFBFB" fill-rule="evenodd" xlink:href="#path-1"></use>
                    <use fill="black" fill-opacity="1" filter="url(#filter-2)" xlink:href="#path-1"></use>
                    <rect stroke="#D1D1D1" stroke-width="0.5" x="0.25" y="0.25" width="27.5" height="27.5" rx="3"></rect>
                </g>
                <path d="M21.8769531,21.1230469 C21.9589848,21.2050785 22,21.3076166 22,21.4306641 C22,21.5537116 21.9589848,21.6562496 21.8769531,21.7382812 C21.7858068,21.8294275 21.6809902,21.875 21.5625,21.875 C21.4440098,21.875 21.3391932,21.8294275 21.2480469,21.7382812 L17.0097656,17.4726562 C16.5266903,17.8919292 15.9798208,18.2200509 15.3691406,18.4570312 C14.7584605,18.6940116 14.1113315,18.8125 13.4277344,18.8125 C12.6712202,18.8125 11.9602898,18.6689467 11.2949219,18.3818359 C10.629554,18.0947251 10.0485051,17.7050806 9.55175781,17.2128906 C9.05501054,16.7207007 8.665366,16.1419304 8.3828125,15.4765625 C8.100259,14.8111946 7.95898438,14.1002642 7.95898438,13.34375 C7.95898438,12.5872358 8.100259,11.8763054 8.3828125,11.2109375 C8.665366,10.5455696 9.05501054,9.96679934 9.55175781,9.47460938 C10.0485051,8.98241941 10.629554,8.59277487 11.2949219,8.30566406 C11.9602898,8.01855325 12.6712202,7.875 13.4277344,7.875 C14.1751339,7.875 14.8815071,8.01855325 15.546875,8.30566406 C16.2122429,8.59277487 16.7932918,8.98241941 17.2900391,9.47460938 C17.7867863,9.96679934 18.1787095,10.5455696 18.4658203,11.2109375 C18.7529311,11.8763054 18.8964844,12.5872358 18.8964844,13.34375 C18.8964844,14.0091179 18.7825532,14.6402965 18.5546875,15.2373047 C18.3268218,15.8343129 18.016929,16.3697893 17.625,16.84375 L21.8769531,21.1230469 Z M13.4277344,17.9511719 C14.0566438,17.9511719 14.6513644,17.8304049 15.2119141,17.5888672 C15.7724637,17.3473295 16.2600891,17.0169292 16.6748047,16.5976562 C17.0895203,16.1783833 17.417642,15.690758 17.6591797,15.1347656 C17.9007174,14.5787733 18.0214844,13.981774 18.0214844,13.34375 C18.0214844,12.705726 17.9007174,12.1087267 17.6591797,11.5527344 C17.417642,10.996742 17.0895203,10.5091167 16.6748047,10.0898438 C16.2600891,9.67057082 15.7724637,9.34017048 15.2119141,9.09863281 C14.6513644,8.85709515 14.0566438,8.73632812 13.4277344,8.73632812 C12.7897104,8.73632812 12.1904325,8.85709515 11.6298828,9.09863281 C11.0693331,9.34017048 10.5817078,9.67057082 10.1669922,10.0898438 C9.75227657,10.5091167 9.42415485,10.996742 9.18261719,11.5527344 C8.94107952,12.1087267 8.8203125,12.705726 8.8203125,13.34375 C8.8203125,13.981774 8.94107952,14.5787733 9.18261719,15.1347656 C9.42415485,15.690758 9.75227657,16.1783833 10.1669922,16.5976562 C10.5817078,17.0169292 11.0693331,17.3473295 11.6298828,17.5888672 C12.1904325,17.8304049 12.7897104,17.9511719 13.4277344,17.9511719 Z" id="Magnifier---simple-line-icons" fill="#2B8500"></path>
            </g>
        </g>
    </g>
</svg>