<svg width="14" height="15" viewBox="0 0 14 15" fill="none" xmlns="http://www.w3.org/2000/svg">
<path d="M13.5898 3.42969L11.293 1.16016C11.0469 0.914062 10.7188 0.75 10.3906 0.75H4.78516C4.07422 0.777344 3.5 1.35156 3.5 2.08984V7.99609H0.328125C0.136719 7.99609 0 8.13281 0 8.32422V8.98047C0 9.14453 0.136719 9.30859 0.328125 9.30859H7.875V10.6211C7.875 10.9219 8.20312 11.0586 8.42188 10.8672L10.3906 8.89844C10.5273 8.76172 10.5273 8.54297 10.3906 8.40625L8.42188 6.41016C8.20312 6.21875 7.875 6.35547 7.875 6.65625V7.99609H4.78516V2.08984H9.16016V4.93359C9.16016 5.28906 9.46094 5.58984 9.81641 5.58984H12.6875V13.4648H4.78516V10.6211H3.5V13.4648C3.5 14.1758 4.07422 14.75 4.78516 14.75H12.6602C13.3984 14.75 14 14.1758 14 13.4648V4.35938C14 4.03125 13.8359 3.67578 13.5898 3.42969ZM10.4727 4.27734V2.17188L12.5781 4.27734H10.4727Z" fill="#8C8C8C"/>
</svg>
