<svg width="16" height="16" xmlns="http://www.w3.org/2000/svg" fill="none">
    <g>
        <title>Layer 1</title>
        <path transform="rotate(180, 8, 8)" id="svg_1" fill="#808B9A" d="m4.90625,6.75c-0.34375,0 -0.5,0.40625 -0.28125,0.65625l3.09375,3.06255c0.15625,0.1562 0.375,0.1562 0.53125,0l3.0938,-3.06255c0.25,-0.25 0.0624,-0.65625 -0.2813,-0.65625l-6.15625,0zm10.84375,1.25c0,-4.28125 -3.4688,-7.75 -7.75,-7.75c-4.28125,0 -7.75,3.46875 -7.75,7.75c0,4.2812 3.46875,7.75 7.75,7.75c4.2812,0 7.75,-3.4688 7.75,-7.75zm-1.5,0c0,3.4688 -2.8125,6.25 -6.25,6.25c-3.46875,0 -6.25,-2.7812 -6.25,-6.25c0,-3.4375 2.78125,-6.25 6.25,-6.25c3.4375,0 6.25,2.8125 6.25,6.25z"/>
    </g>
</svg>