<svg width="16" height="16" viewBox="0 0 16 16" fill="none" xmlns="http://www.w3.org/2000/svg">
    <path d="M4.90625 6.75C4.5625 6.75 4.40625 7.15625 4.625 7.40625L7.71875 10.4688C7.875 10.625 8.09375 10.625 8.25 10.4688L11.3438 7.40625C11.5938 7.15625 11.4062 6.75 11.0625 6.75H4.90625ZM15.75 8C15.75 3.71875 12.2812 0.25 8 0.25C3.71875 0.25 0.25 3.71875 0.25 8C0.25 12.2812 3.71875 15.75 8 15.75C12.2812 15.75 15.75 12.2812 15.75 8ZM14.25 8C14.25 11.4688 11.4375 14.25 8 14.25C4.53125 14.25 1.75 11.4688 1.75 8C1.75 4.5625 4.53125 1.75 8 1.75C11.4375 1.75 14.25 4.5625 14.25 8Z"
          fill="#808B9A"/>
</svg>
