<svg width="14" height="14" viewBox="0 0 14 14" fill="none" xmlns="http://www.w3.org/2000/svg">
    <path d="M13.1953 0.828125H12.4844C12.3066 0.828125 12.1797 0.980469 12.1797 1.1582L12.2305 3.64648C11.1133 1.94531 9.1582 0.828125 6.97461 0.853516C3.49609 0.853516 0.677734 3.69727 0.703125 7.15039C0.703125 10.6289 3.52148 13.4219 7 13.4219C8.59961 13.4219 10.0977 12.8125 11.2148 11.8223C11.3418 11.6953 11.3418 11.4922 11.2148 11.3652L10.707 10.8574C10.6055 10.7559 10.4277 10.7559 10.3008 10.8574C9.41211 11.6445 8.26953 12.1016 7 12.1016C4.23242 12.1016 2.02344 9.89258 2.02344 7.125C2.02344 4.38281 4.23242 2.14844 7 2.14844C9.00586 2.14844 10.7324 3.36719 11.5195 5.09375L8.32031 5.01758C8.14258 5.01758 8.01562 5.14453 8.01562 5.32227V6.00781C8.01562 6.18555 8.14258 6.3125 8.32031 6.3125H13.1953C13.3477 6.3125 13.5 6.18555 13.5 6.00781V1.13281C13.5 0.980469 13.3477 0.828125 13.1953 0.828125Z" fill="#8C8C8C"/>
</svg>
