<svg width="14" height="15" viewBox="0 0 14 15" fill="none" xmlns="http://www.w3.org/2000/svg">
    <path d="M9.625 10.375H9.48828C9.16016 10.375 8.83203 10.457 8.50391 10.5664C8.03906 10.7305 7.51953 10.8125 7 10.8125C6.45312 10.8125 5.93359 10.7305 5.46875 10.5664C5.14062 10.457 4.8125 10.4023 4.48438 10.4023H4.375C2.43359 10.4023 0.875 11.9609 0.875 13.875C0.875 14.3672 1.25781 14.75 1.75 14.75H12.25C12.7148 14.75 13.125 14.3672 13.125 13.875C13.125 11.9609 11.5391 10.375 9.625 10.375ZM2.21484 13.4375C2.43359 12.4531 3.30859 11.7148 4.375 11.6875H4.48438C4.62109 11.6875 4.8125 11.7422 5.03125 11.8242C5.66016 12.0156 6.31641 12.125 6.97266 12.125C7.65625 12.125 8.3125 12.0156 8.94141 11.8242C9.16016 11.7422 9.35156 11.6875 9.48828 11.6875H9.625C10.6641 11.7148 11.5391 12.4531 11.7578 13.4375H2.21484ZM2.37891 6.875C2.73438 6.875 3.00781 6.60156 3.00781 6.24609V6C3.00781 3.8125 4.78516 2.03516 7 2.03516C9.1875 2.03516 10.9648 3.8125 10.9648 6V6.35547C10.9648 7.39453 10.1172 8.24219 9.07812 8.24219H8.44922C8.33984 7.75 7.90234 7.39453 7.41016 7.39453H6.5625C5.96094 7.39453 5.49609 7.85938 5.49609 8.46094C5.49609 9.03516 5.96094 9.52734 6.5625 9.52734C6.5625 9.52734 6.5625 9.52734 6.5625 9.5H9.07812C10.8281 9.5 12.2227 8.10547 12.25 6.35547V6C12.25 3.12891 9.87109 0.75 7 0.75C4.10156 0.75 1.75 3.12891 1.75 6V6.24609C1.75 6.60156 2.02344 6.875 2.37891 6.875ZM7 4.25C7.95703 4.27734 8.72266 5.04297 8.75 6C8.72266 6.32812 8.64062 6.62891 8.50391 6.875C8.69531 7.01172 8.85938 7.17578 8.99609 7.36719H9.07812C9.43359 7.36719 9.73438 7.17578 9.89844 6.90234C9.98047 6.62891 10.0625 6.32812 10.0625 6C10.0625 4.33203 8.66797 2.9375 7 2.9375C5.30469 2.9375 3.9375 4.33203 3.9375 6C3.9375 6.79297 4.21094 7.47656 4.70312 8.02344C4.8125 7.55859 5.08594 7.14844 5.46875 6.875C5.33203 6.62891 5.25 6.32812 5.25 6C5.25 5.04297 6.01562 4.27734 7 4.25Z" fill="#8C8C8C"/>
</svg>
