<svg width="14" height="14" viewBox="0 0 14 14" fill="none" xmlns="http://www.w3.org/2000/svg">
    <path d="M0.804688 0.828125C0.626953 0.828125 0.5 0.980469 0.5 1.13281V6.00781C0.5 6.18555 0.626953 6.3125 0.804688 6.3125H5.67969C5.83203 6.3125 5.98438 6.18555 5.98438 6.00781V5.32227C5.98438 5.14453 5.83203 5.01758 5.6543 5.01758L2.45508 5.09375C3.24219 3.36719 4.96875 2.14844 7 2.14844C9.74219 2.14844 11.9766 4.38281 11.9766 7.125C11.9766 9.89258 9.74219 12.1016 7 12.1016C5.70508 12.1016 4.5625 11.6445 3.67383 10.8574C3.54688 10.7559 3.36914 10.7559 3.26758 10.8574L2.75977 11.3652C2.63281 11.4922 2.63281 11.6953 2.75977 11.8223C3.87695 12.8125 5.375 13.4219 7 13.4219C10.4531 13.4219 13.2715 10.6289 13.2969 7.15039C13.2969 3.69727 10.4785 0.853516 7 0.853516C4.81641 0.828125 2.86133 1.94531 1.74414 3.64648L1.79492 1.1582C1.79492 0.980469 1.66797 0.828125 1.49023 0.828125H0.804688Z"
          fill="#8C8C8C"/>
</svg>