<svg width="14" height="16" viewBox="0 0 14 16" fill="none" xmlns="http://www.w3.org/2000/svg">
    <path d="M8.375 13H9.125C9.3125 13 9.5 12.8438 9.5 12.625V5.875C9.5 5.6875 9.3125 5.5 9.125 5.5H8.375C8.15625 5.5 8 5.6875 8 5.875V12.625C8 12.8438 8.15625 13 8.375 13ZM13.5 2.5H10.9062L9.84375 0.75C9.59375 0.3125 9.09375 0 8.5625 0H5.40625C4.875 0 4.375 0.3125 4.125 0.75L3.0625 2.5H0.5C0.21875 2.5 0 2.75 0 3V3.5C0 3.78125 0.21875 4 0.5 4H1V14.5C1 15.3438 1.65625 16 2.5 16H11.5C12.3125 16 13 15.3438 13 14.5V4H13.5C13.75 4 14 3.78125 14 3.5V3C14 2.75 13.75 2.5 13.5 2.5ZM5.34375 1.59375C5.375 1.5625 5.4375 1.5 5.5 1.5C5.5 1.5 5.5 1.5 5.53125 1.5H8.46875C8.53125 1.5 8.59375 1.5625 8.625 1.59375L9.15625 2.5H4.8125L5.34375 1.59375ZM11.5 14.5H2.5V4H11.5V14.5ZM4.875 13H5.625C5.8125 13 6 12.8438 6 12.625V5.875C6 5.6875 5.8125 5.5 5.625 5.5H4.875C4.65625 5.5 4.5 5.6875 4.5 5.875V12.625C4.5 12.8438 4.65625 13 4.875 13Z"
          fill="#f54966"/>
</svg>
