<svg width="14" height="14" viewBox="0 0 14 14" fill="none" xmlns="http://www.w3.org/2000/svg">
    <path d="M13.5312 3.0625L10.9375 0.46875C10.6562 0.1875 10.2812 0 9.875 0H1.5C0.65625 0 0 0.6875 0 1.5V12.5C0 13.3438 0.65625 14 1.5 14H12.5C13.3125 14 14 13.3438 14 12.5V4.125C14 3.71875 13.8125 3.34375 13.5312 3.0625ZM8.5 1.5V4H4.5V1.5H8.5ZM12.3125 12.5H1.6875C1.5625 12.5 1.5 12.4375 1.5 12.3125V1.6875C1.5 1.59375 1.5625 1.5 1.6875 1.5H3V4.75C3 5.1875 3.3125 5.5 3.75 5.5H9.25C9.65625 5.5 10 5.1875 10 4.75V1.625L12.4375 4.09375C12.4688 4.125 12.5 4.15625 12.5 4.21875V12.3125C12.5 12.4375 12.4062 12.5 12.3125 12.5ZM7 6.25C5.46875 6.25 4.25 7.5 4.25 9C4.25 10.5312 5.46875 11.75 7 11.75C8.5 11.75 9.75 10.5312 9.75 9C9.75 7.5 8.5 6.25 7 6.25ZM7 10.25C6.28125 10.25 5.75 9.71875 5.75 9C5.75 8.3125 6.28125 7.75 7 7.75C7.6875 7.75 8.25 8.3125 8.25 9C8.25 9.71875 7.6875 10.25 7 10.25Z"
          fill="#f54966"/>
</svg>
