<svg width="28" height="28" viewBox="0 0 28 28" fill="none" xmlns="http://www.w3.org/2000/svg">
<circle cx="14" cy="14" r="14" fill="#ED4D4B"/>
<path d="M13.0893 8.00846C13.4442 7.22577 14.5558 7.22577 14.9107 8.00846L15.9989 10.4082C16.1444 10.7291 16.4481 10.9498 16.7983 10.989L19.4169 11.2823C20.2709 11.378 20.6144 12.4353 19.9797 13.0147L18.0337 14.7911C17.7735 15.0287 17.6575 15.3857 17.7284 15.7309L18.2585 18.3119C18.4315 19.1538 17.5321 19.8072 16.7849 19.3826L14.4941 18.0808C14.1877 17.9067 13.8123 17.9067 13.5059 18.0808L11.2151 19.3826C10.4679 19.8072 9.56853 19.1538 9.74146 18.3119L10.2716 15.7309C10.3425 15.3857 10.2265 15.0287 9.96629 14.7911L8.02027 13.0147C7.38556 12.4353 7.72908 11.378 8.58314 11.2823L11.2017 10.989C11.5519 10.9498 11.8556 10.7291 12.0011 10.4082L13.0893 8.00846Z" fill="white"/>
</svg>
