<svg width="16" height="16" viewBox="0 0 16 16" fill="none" xmlns="http://www.w3.org/2000/svg">
    <path d="M12.8798 14.2839L12.8797 14.2835C12.8684 14.2345 12.8555 14.1814 12.8416 14.1242C12.7391 13.7024 12.5824 13.0576 12.6373 12.2118C12.7 11.2463 13.0293 10.063 13.895 8.56349C14.9541 6.72915 14.5254 4.51349 12.9794 3.13441L12.5241 2.7282L12.8292 2.19974L13.1635 1.62067C13.2401 1.48801 13.1944 1.31897 13.0628 1.243C12.9312 1.16703 12.7619 1.21195 12.6853 1.34461L12.351 1.92367L12.0459 2.45213L11.4665 2.26089C9.49917 1.61162 7.366 2.34819 6.30695 4.18252C5.44122 5.682 4.58108 6.55877 3.77629 7.09585C3.07125 7.56636 2.43451 7.75301 2.01792 7.87512C1.96149 7.89166 1.90909 7.90702 1.86112 7.92174C1.81693 7.93531 1.78581 7.95365 1.76317 7.97201C1.74008 7.99074 1.72079 8.0136 1.70546 8.04053L12.8798 14.2839ZM12.8798 14.2839C12.8988 14.3663 12.8836 14.4281 12.8546 14.4775L12.8544 14.4779M12.8798 14.2839L12.8544 14.4779M12.8544 14.4779C12.8184 14.5393 12.7555 14.5892 12.684 14.6106C12.621 14.6294 12.5504 14.6272 12.4713 14.5815L1.80702 8.42449C1.72797 8.37885 1.69084 8.31888 1.67566 8.25501M12.8544 14.4779L1.67566 8.25501M1.67566 8.25501C1.6584 8.18242 1.67013 8.10272 1.70543 8.04059L1.67566 8.25501ZM6.79841 14.2239C6.42676 14.3959 5.98021 14.3905 5.5991 14.1705C5.218 13.9504 4.99005 13.5664 4.95322 13.1585L6.79841 14.2239Z"
          stroke="#979797" stroke-width="1.5"/>
</svg>
