<svg width="14" height="15" viewBox="0 0 14 15" fill="none" xmlns="http://www.w3.org/2000/svg">
<path d="M13.125 8.625H8.75C8.25781 8.625 7.875 9.03516 7.875 9.5V13.875C7.875 14.3672 8.25781 14.75 8.75 14.75H13.125C13.5898 14.75 14 14.3672 14 13.875V9.5C14 9.03516 13.5898 8.625 13.125 8.625ZM12.6875 13.4375H9.1875V9.9375H12.6875V13.4375ZM3.5 7.75C1.55859 7.75 0 9.33594 0 11.25C0 13.1914 1.55859 14.75 3.5 14.75C5.41406 14.75 7 13.1914 7 11.25C7 9.33594 5.41406 7.75 3.5 7.75ZM3.5 13.4375C2.26953 13.4375 1.3125 12.4805 1.3125 11.25C1.3125 10.0469 2.26953 9.0625 3.5 9.0625C4.70312 9.0625 5.6875 10.0469 5.6875 11.25C5.6875 12.4805 4.70312 13.4375 3.5 13.4375ZM13.8359 6.27344L10.9375 1.26953C10.7188 0.941406 10.3906 0.75 10.0625 0.75C9.70703 0.75 9.37891 0.941406 9.16016 1.26953L6.26172 6.27344C5.85156 6.92969 6.34375 7.75 7.13672 7.75H12.9609C13.7539 7.75 14.2461 6.92969 13.8359 6.27344ZM7.65625 6.4375L10.0625 2.36328L12.4414 6.4375H7.65625Z" fill="#8C8C8C"/>
</svg>
