<?xml version="1.0" encoding="UTF-8"?>
<svg width="16px" height="16px" viewBox="0 0 16 16" version="1.1" xmlns="http://www.w3.org/2000/svg" xmlns:xlink="http://www.w3.org/1999/xlink">
    <!-- Generator: Sketch 48.2 (47327) - http://www.bohemiancoding.com/sketch -->
    <title>open-icon</title>
    <desc>Created with Sketch.</desc>
    <defs></defs>
    <g id="Symbols" stroke="none" stroke-width="1" fill="none" fill-rule="evenodd">
        <g id="open-icon" fill="#76787B">
            <path d="M14.0292969,3.97500002 C14.3027357,3.97500002 14.5351553,4.07070219 14.7265625,4.2621094 C14.9179697,4.45351661 15.0136719,4.68593616 15.0136719,4.95937502 L15.0136719,12.615625 C15.0136719,12.8890639 14.9179697,13.1214834 14.7265625,13.3128906 C14.5351553,13.5042979 14.3027357,13.6 14.0292969,13.6 L1.99804688,13.6 C1.72460801,13.6 1.49218846,13.5042979 1.30078125,13.3128906 C1.10937404,13.1214834 1.01367188,12.8890639 1.01367188,12.615625 L1.01367188,3.20937502 C1.01367188,2.93593616 1.10937404,2.70351661 1.30078125,2.5121094 C1.49218846,2.32070219 1.72460801,2.22500002 1.99804688,2.22500002 L6.4140625,2.22500002 C6.63281359,2.22500002 6.82877518,2.28880147 7.00195312,2.41640627 C7.17513107,2.54401108 7.29361947,2.70807194 7.35742188,2.90859377 L7.69921875,3.97500002 L14.0292969,3.97500002 Z M1.99804688,3.20937502 L1.99804688,3.97500002 L6.66015625,3.97500002 L6.4140625,3.20937502 L1.99804688,3.20937502 Z M14.0292969,12.615625 L14.0292969,4.95937502 L1.99804688,4.95937502 L1.99804688,12.615625 L14.0292969,12.615625 Z" id="folder---anticon"></path>
        </g>
    </g>
</svg>