<svg width="12" height="15" viewBox="0 0 12 15" fill="none" xmlns="http://www.w3.org/2000/svg">
<path d="M8.625 7.53125C8.625 7.36719 8.46094 7.20312 8.29688 7.20312H3.70312C3.51172 7.20312 3.375 7.36719 3.375 7.53125V8.29688C3.375 8.48828 3.51172 8.625 3.70312 8.625H8.29688C8.46094 8.625 8.625 8.48828 8.625 8.29688V7.53125ZM8.29688 9.5H3.70312C3.51172 9.5 3.375 9.66406 3.375 9.82812V10.5938C3.375 10.7852 3.51172 10.9219 3.70312 10.9219H8.29688C8.46094 10.9219 8.625 10.7852 8.625 10.5938V9.82812C8.625 9.66406 8.46094 9.5 8.29688 9.5ZM11.25 4.35938C11.25 4.03125 11.0859 3.67578 10.8398 3.42969L8.57031 1.16016C8.32422 0.914062 7.96875 0.75 7.64062 0.75H2.0625C1.32422 0.75 0.75 1.35156 0.75 2.0625V13.4375C0.75 14.1758 1.32422 14.75 2.0625 14.75H9.9375C10.6484 14.75 11.25 14.1758 11.25 13.4375V4.35938ZM7.75 2.17188L9.82812 4.25H7.75V2.17188ZM9.9375 13.4375H2.0625V2.0625H6.4375V4.90625C6.4375 5.28906 6.71094 5.5625 7.09375 5.5625H9.9375V13.4375Z" fill="#8C8C8C"/>
</svg>
