<svg width="14" height="15" viewBox="0 0 14 15" fill="none" xmlns="http://www.w3.org/2000/svg">
<path d="M7 0.96875C3.25391 0.96875 0.21875 4.03125 0.21875 7.75C0.21875 11.4961 3.25391 14.5312 7 14.5312C10.7188 14.5312 13.7812 11.4961 13.7812 7.75C13.7812 4.03125 10.7188 0.96875 7 0.96875ZM7 2.28125C10.0078 2.28125 12.4688 4.74219 12.4688 7.75C12.4688 10.7852 10.0078 13.2188 7 13.2188C3.96484 13.2188 1.53125 10.7852 1.53125 7.75C1.53125 4.74219 3.96484 2.28125 7 2.28125ZM10.8281 5.86328L10.1992 5.23438C10.0898 5.09766 9.87109 5.09766 9.73438 5.23438L5.87891 9.0625L4.23828 7.42188C4.10156 7.28516 3.91016 7.28516 3.77344 7.42188L3.14453 8.02344C3.03516 8.16016 3.03516 8.37891 3.14453 8.48828L5.63281 11.0039C5.76953 11.1406 5.96094 11.1406 6.09766 11.0039L10.8281 6.32812C10.9375 6.19141 10.9375 5.97266 10.8281 5.86328Z" fill="#8C8C8C"/>
</svg>
