<svg width="16" height="16" viewBox="0 0 16 16" fill="none" xmlns="http://www.w3.org/2000/svg">
<path d="M15.75 8H14.25C14.25 11.0938 11.9688 13.6875 9.03125 14.1875C8.8125 14.5312 8.4375 14.75 8 14.75C7.53125 14.75 7.15625 14.5312 6.9375 14.1875C4.34375 13.7188 2.28125 11.6562 1.8125 9.0625C1.46875 8.84375 1.25 8.46875 1.25 8C1.25 7.5625 1.46875 7.1875 1.8125 6.96875C2.3125 4.03125 4.90625 1.75 8 1.75C9.1875 1.78125 10.3125 2.09375 11.25 2.6875L10.125 3.8125C9.46875 3.46875 8.75 3.25 8 3.25C5.6875 3.25 3.75 4.90625 3.3125 7.09375C3.5625 7.3125 3.75 7.65625 3.75 8C3.75 8.375 3.5625 8.71875 3.3125 8.9375C3.6875 10.8125 5.1875 12.3125 7.0625 12.6875C7.28125 12.4375 7.625 12.25 7.96875 12.25C8.34375 12.25 8.6875 12.4375 8.90625 12.6875C11.0938 12.25 12.75 10.3125 12.75 8H11.25C11.25 9.8125 9.78125 11.25 8 11.25C6.1875 11.25 4.75 9.8125 4.75 8C4.75 6.21875 6.1875 4.75 8 4.75C8.34375 4.78125 8.6875 4.84375 9 4.9375L7.90625 6.03125C6.84375 6.0625 6 6.9375 6 8.03125C6 9.125 6.875 10.0312 8 10.0312C9.09375 10.0312 10 9.125 10 8.03125V8H8.03125L14.3438 1.71875C14.4375 1.625 14.5 1.5 14.5 1.375C14.5 1.21875 14.4375 1.09375 14.3438 1L14 0.65625C13.9062 0.5625 13.7812 0.5 13.625 0.5C13.5 0.5 13.375 0.5625 13.2812 0.65625L12.3438 1.59375C11.0938 0.75 9.59375 0.25 8 0.25C3.71875 0.25 0.25 3.75 0.25 8C0.25 12.2812 3.71875 15.75 8 15.75C12.25 15.75 15.75 12.2812 15.75 8Z" fill="#8C8C8C"/>
</svg>
