<svg width="20" height="20" viewBox="0 0 20 20" fill="none" xmlns="http://www.w3.org/2000/svg">
    <circle cx="10" cy="10" r="10" transform="rotate(90 10 10)" fill="url(#paint0_linear)"/>
    <path d="M7.02475 7.9682C7.08482 7.9978 7.13685 8.04148 7.17641 8.09551C7.21598 8.14954 7.24189 8.21234 7.25196 8.27854C7.26323 8.35038 7.25865 8.42382 7.23855 8.4937C7.21844 8.56358 7.1833 8.62822 7.13558 8.6831C7.10699 8.7289 7.06801 8.76733 7.02179 8.79525C6.97557 8.82317 6.92342 8.83981 6.86958 8.84381C6.75711 8.85279 6.64428 8.83175 6.54261 8.78285C6.4133 8.72186 6.27761 8.67539 6.13806 8.6443C5.99439 8.61227 5.84743 8.59739 5.70025 8.59997C5.43919 8.59521 5.17961 8.64035 4.93549 8.73297C4.72559 8.81943 4.53663 8.94981 4.3813 9.11536C4.21991 9.28475 4.09703 9.48703 4.02109 9.70833C3.93139 9.96079 3.88821 10.2274 3.89363 10.4953C3.88617 10.7823 3.93318 11.0681 4.03217 11.3376C4.11289 11.5634 4.24361 11.768 4.41455 11.9361C4.57958 12.0951 4.77855 12.2145 4.99645 12.2853C5.22826 12.3646 5.47188 12.404 5.71688 12.4017C5.86005 12.4027 6.00298 12.3898 6.1436 12.3629C6.28877 12.3366 6.42899 12.288 6.55924 12.2188C6.66001 12.1674 6.77411 12.148 6.8862 12.1634C6.99658 12.1809 7.09589 12.2405 7.16329 12.3296C7.2047 12.3832 7.23405 12.4451 7.24935 12.5111C7.26466 12.5771 7.26555 12.6456 7.25196 12.712C7.24086 12.7787 7.21324 12.8415 7.17161 12.8947C7.12998 12.948 7.07568 12.9899 7.01366 13.0168C6.8769 13.0868 6.73408 13.1443 6.58695 13.1886C6.44301 13.2315 6.29686 13.2667 6.14914 13.2939C5.9987 13.3162 5.8468 13.3273 5.69471 13.3271C5.31739 13.3317 4.94221 13.2698 4.58635 13.1443C4.25043 13.02 3.94178 12.8318 3.6775 12.5901C3.40165 12.3447 3.18556 12.0395 3.04573 11.6978C2.90472 11.3132 2.8407 10.9046 2.85731 10.4953C2.85646 10.1158 2.92793 9.73963 3.06789 9.38691C3.20337 9.05121 3.40719 8.74736 3.66641 8.49467C3.92571 8.23841 4.23512 8.03843 4.57527 7.90724C4.93809 7.76208 5.32615 7.6905 5.71688 7.69665C5.94627 7.6972 6.17488 7.72322 6.39852 7.77424C6.61449 7.81272 6.82484 7.87787 7.02475 7.9682Z" fill="#FFFFFF"/>
    <path d="M9.90086 13.3325C9.56139 13.3378 9.22311 13.2911 8.89779 13.194C8.58531 13.0899 8.29696 12.9241 8.0499 12.7063C7.98559 12.6506 7.93286 12.5828 7.89473 12.5068C7.85834 12.4386 7.8393 12.3625 7.8393 12.2851C7.83825 12.2258 7.84897 12.1668 7.87085 12.1117C7.89272 12.0565 7.92533 12.0062 7.96677 11.9637C8.00919 11.9183 8.06078 11.8825 8.11811 11.8587C8.17544 11.8348 8.2372 11.8233 8.29928 11.8252C8.39614 11.825 8.49009 11.8583 8.56528 11.9194C8.74669 12.0702 8.94811 12.1951 9.1638 12.2907C9.39795 12.384 9.64898 12.4274 9.90086 12.4181C10.0895 12.4233 10.2774 12.3932 10.455 12.3295C10.6056 12.2784 10.7422 12.193 10.854 12.0801C10.9016 12.0353 10.9394 11.9811 10.9651 11.9211C10.9909 11.861 11.004 11.7963 11.0037 11.7309C11.0078 11.6573 10.9972 11.5836 10.9724 11.5141C10.9477 11.4447 10.9093 11.3809 10.8596 11.3264C10.7398 11.1995 10.5917 11.1026 10.4273 11.0438C10.1859 10.9551 9.93474 10.8955 9.67918 10.8664C9.421 10.8297 9.16803 10.7627 8.9255 10.6669C8.72016 10.5948 8.53162 10.4816 8.37132 10.3344C8.226 10.2026 8.11233 10.0397 8.03881 9.85782C7.96331 9.66162 7.9257 9.45289 7.92798 9.24268C7.91914 8.92794 8.01246 8.6188 8.19398 8.36153C8.37799 8.11347 8.62746 7.92157 8.91442 7.80735C9.23084 7.67801 9.57014 7.61392 9.91194 7.61892C10.2376 7.61591 10.5615 7.66646 10.8707 7.76855C11.1317 7.85725 11.3754 7.99037 11.5911 8.16202C11.658 8.21079 11.7132 8.27393 11.7525 8.34682C11.7918 8.41971 11.8143 8.50048 11.8183 8.5832C11.8166 8.70339 11.769 8.81838 11.6853 8.90462C11.6457 8.94898 11.5969 8.98431 11.5424 9.00821C11.4879 9.03211 11.4289 9.04404 11.3694 9.04317C11.2921 9.04478 11.2163 9.02146 11.1533 8.97667C11.0503 8.88914 10.9344 8.8181 10.8097 8.76608C10.6637 8.69977 10.5138 8.6424 10.3608 8.59428C10.0288 8.49109 9.6732 8.49109 9.34113 8.59428C9.20319 8.63948 9.08044 8.72196 8.98646 8.83258C8.90704 8.93157 8.86401 9.05481 8.86454 9.18172C8.86103 9.3254 8.91032 9.46539 9.00309 9.57518C9.11473 9.68989 9.25407 9.77387 9.40764 9.81902C9.61237 9.88857 9.82159 9.94411 10.0339 9.98528C10.3172 10.0341 10.5969 10.1026 10.8707 10.1903C11.0863 10.2567 11.2887 10.3598 11.4692 10.4951C11.6265 10.6198 11.7503 10.7817 11.8294 10.9662C11.9126 11.1855 11.9521 11.4189 11.9458 11.6534C11.9535 11.9722 11.854 12.2845 11.6632 12.5401C11.4633 12.7861 11.2039 12.9769 10.9095 13.0942C10.5935 13.243 10.25 13.3241 9.90086 13.3325Z" fill="#FFFFFF"/>
    <path d="M16.909 7.67988C17.0365 7.67758 17.1599 7.72533 17.2526 7.81289C17.3007 7.85244 17.3392 7.90244 17.3652 7.9591C17.3911 8.01575 17.4038 8.07757 17.4022 8.13985C17.4003 8.21452 17.3834 8.28804 17.3524 8.35598L15.3906 12.9446C15.3526 13.0427 15.2822 13.1249 15.191 13.1774C15.1104 13.2253 15.0188 13.252 14.925 13.2549C14.8364 13.2476 14.7509 13.2191 14.6757 13.1718C14.5951 13.1165 14.5317 13.0397 14.4928 12.9501L12.5365 8.3449C12.5189 8.31419 12.5076 8.28028 12.5033 8.24515C12.5009 8.21379 12.5009 8.18229 12.5033 8.15094C12.4997 8.08271 12.513 8.01465 12.542 7.95279C12.571 7.89092 12.6148 7.83716 12.6695 7.79626C12.761 7.72258 12.8736 7.67988 12.9909 7.67434C13.0866 7.67335 13.1801 7.70217 13.2585 7.75679C13.337 7.81142 13.3965 7.88914 13.4288 7.97914L15.1633 12.069H14.8862L16.4823 7.96806C16.5159 7.8825 16.5747 7.80915 16.6509 7.7577C16.7271 7.70625 16.8171 7.67912 16.909 7.67988Z" fill="#FFFFFF"/>
    <defs>
        <linearGradient id="paint0_linear" x1="16.9231" y1="6.875" x2="-0.752063" y2="7.82083" gradientUnits="userSpaceOnUse">
            <stop stop-color="#F02929"/>
            <stop offset="1" stop-color="#9B1010"/>
        </linearGradient>
    </defs>
</svg>
