<?xml version="1.0" encoding="UTF-8"?>
<svg width="23px" height="24px" viewBox="0 0 23 24" version="1.1" xmlns="http://www.w3.org/2000/svg" xmlns:xlink="http://www.w3.org/1999/xlink">
    <!-- Generator: Sketch 47.1 (45422) - http://www.bohemiancoding.com/sketch -->
    <title>setting-icon</title>
    <desc>Created with Sketch.</desc>
    <defs></defs>
    <g id="Katalon-Recorder" stroke="none" stroke-width="1" fill="none" fill-rule="evenodd">
        <g id="Katalon-recoder-new-icon" transform="translate(-587.000000, -58.000000)" stroke="#979797">
            <g id="setting-icon" transform="translate(587.000000, 58.000000)">
                <g>
                    <path d="M11.6944444,15.2621628 C9.72886337,15.2621628 8.12962963,13.6621229 8.12962963,11.6955511 C8.12962963,9.72897922 9.72886337,8.12962963 11.6944444,8.12962963 C13.6600255,8.12962963 15.2592593,9.72897922 15.2592593,11.6955511 C15.2592593,13.6621229 13.6600255,15.2621628 11.6944444,15.2621628 L11.6944444,15.2621628 Z M19.8657552,13.078 C19.909733,12.726 19.9427164,12.374 19.9427164,12 C19.9427164,11.626 19.909733,11.274 19.8657552,10.922 L22.1855858,9.107 C22.3944805,8.942 22.4494528,8.645 22.3175193,8.403 L20.1186277,4.597 C19.9866942,4.355 19.6898439,4.267 19.4479658,4.355 L16.7103457,5.455 C16.1386339,5.015 15.5229442,4.652 14.8522823,4.377 L14.4344929,1.462 C14.4015095,1.198 14.1706259,1 13.8957645,1 L9.49798123,1 C9.22311977,1 8.99223615,1.198 8.95925278,1.462 L8.54146337,4.377 C7.87080143,4.652 7.25511178,5.026 6.68339996,5.455 L3.9457799,4.355 C3.69290736,4.256 3.40705145,4.355 3.27511796,4.597 L1.07622634,8.403 C0.933298386,8.645 0.999265135,8.942 1.20815984,9.107 L3.52799049,10.922 C3.48401266,11.274 3.45102929,11.637 3.45102929,12 C3.45102929,12.363 3.48401266,12.726 3.52799049,13.078 L1.20815984,14.893 C0.999265135,15.058 0.944292844,15.355 1.07622634,15.597 L3.27511796,19.403 C3.40705145,19.645 3.70390182,19.733 3.9457799,19.645 L6.68339996,18.545 C7.25511178,18.985 7.87080143,19.348 8.54146337,19.623 L8.95925278,22.538 C8.99223615,22.802 9.22311977,23 9.49798123,23 L13.8957645,23 C14.1706259,23 14.4015095,22.802 14.4344929,22.538 L14.8522823,19.623 C15.5229442,19.348 16.1386339,18.974 16.7103457,18.545 L19.4479658,19.645 C19.7008383,19.744 19.9866942,19.645 20.1186277,19.403 L22.3175193,15.597 C22.4494528,15.355 22.3944805,15.058 22.1855858,14.893 L19.8657552,13.078 Z" transform="translate(11.694444, 12.000000) rotate(-360.000000) translate(-11.694444, -12.000000) "></path>
                </g>
            </g>
        </g>
    </g>
</svg>