<svg width="27" height="27" viewBox="0 0 27 27" fill="none" xmlns="http://www.w3.org/2000/svg">
<circle cx="13.5" cy="13.5" r="12.75" fill="#ED4D4B" stroke="white" stroke-width="1.5"/>
<mask id="mask0" mask-type="alpha" maskUnits="userSpaceOnUse" x="0" y="0" width="27" height="27">
<circle cx="13.5" cy="13.5" r="13.5" fill="#ED4D4B"/>
</mask>
<g mask="url(#mask0)">
<path d="M21.9688 20.2575L21.9443 20.2283C20.7427 18.8043 19.0976 17.8354 17.2669 17.4379C18.2263 16.7513 18.9679 15.7793 19.3677 14.6471H20.8407C21.666 14.6471 22.3372 13.9755 22.3372 13.1496V12.7058C22.3368 8.0677 18.5655 4.29419 13.9302 4.29419C9.29491 4.29419 5.5232 8.0677 5.5232 12.7058V13.1496C5.5232 13.9755 6.1944 14.6471 7.01978 14.6471H8.43905C8.8453 15.7978 9.60496 16.7831 10.5871 17.4714C8.81481 17.8878 7.22462 18.8425 6.05484 20.2283L6.02993 20.2579C4.68323 21.8542 4 23.6675 4 25.6471V26.2942L14 30.2942L24 26.2942V25.6471C24 23.6675 23.3168 21.8542 21.9688 20.2575ZM13.9036 17.2235C12.1107 17.2235 10.5596 16.169 9.83686 14.6471H13.0679V13.3529H9.44779C9.41859 13.1462 9.40313 12.9352 9.40313 12.7204C9.40313 10.2376 11.4219 8.21767 13.9032 8.21767C16.3844 8.21767 18.4032 10.2376 18.4032 12.7204C18.4032 15.2031 16.3849 17.2235 13.9036 17.2235ZM21.0438 13.1496C21.0438 13.2618 20.9527 13.3529 20.8407 13.3529H19.6623C19.6851 13.1453 19.6971 12.9343 19.6971 12.7204C19.6971 12.4965 19.6838 12.2756 19.6593 12.0586H21.0142C21.0335 12.2718 21.0438 12.4875 21.0438 12.7058V13.1496ZM13.9302 5.58841C17.1802 5.58841 19.9281 7.78067 20.7745 10.7649H19.357C18.5531 8.5279 16.4119 6.92388 13.9032 6.92388C11.3944 6.92388 9.25326 8.5279 8.44936 10.7649H7.08591C7.93232 7.78067 10.6803 5.58841 13.9302 5.58841ZM7.02021 13.3529C6.90812 13.3529 6.81708 13.2618 6.81708 13.1496V12.7058C6.81708 12.4875 6.82739 12.2718 6.84671 12.0586H8.14833C8.12342 12.2761 8.11054 12.4965 8.11054 12.7204C8.11054 12.9339 8.12256 13.1449 8.14532 13.3529H7.02021ZM5.32308 25C5.45492 23.5837 6.02392 22.2715 7.01892 21.0928L7.04382 21.0632C8.40298 19.4527 10.4394 18.5293 12.6308 18.5293H15.3692C17.5611 18.5293 19.5974 19.4527 20.9566 21.0632L20.9811 21.0924C21.9761 22.2715 22.5451 23.5833 22.6769 25L14 29L5.32308 25Z" fill="white"/>
</g>
</svg>
