<?xml version="1.0" encoding="UTF-8"?>
<svg width="16px" height="16px" viewBox="0 0 16 16" version="1.1" xmlns="http://www.w3.org/2000/svg" xmlns:xlink="http://www.w3.org/1999/xlink">
    <!-- Generator: Sketch 48.2 (47327) - http://www.bohemiancoding.com/sketch -->
    <title>web-icon-16</title>
    <desc>Created with Sketch.</desc>
    <defs></defs>
    <g id="Symbols" stroke="none" stroke-width="1" fill="none" fill-rule="evenodd">
        <g id="web-icon-16" stroke="#979797" stroke-width="1.2">
            <path d="M8.10380061,14.1038006 C8.31660198,14.1038006 8.52681587,14.0927223 8.73389702,14.071111 C11.75145,13.7561939 14.1038006,11.2047077 14.1038006,8.10380061 C14.1038006,4.79009211 11.4175091,2.10380061 8.10380061,2.10380061 C4.79009211,2.10380061 2.10380061,4.79009211 2.10380061,8.10380061 C2.10380061,11.2129833 4.46872362,13.7698086 7.49787761,14.0735844 C7.69713907,14.0935672 7.89927477,14.1038006 8.10380061,14.1038006 Z" id="Oval" transform="translate(8.103801, 8.103801) rotate(-91.000000) translate(-8.103801, -8.103801) "></path>
            <path d="M14.8439673,11.0069368 C15.8090584,10.5133862 16.0285898,10.2080542 16.0285898,9.68592699 C16.0285898,8.25571522 12.1942448,6.91127524 7.60148035,6.91127524 C3.00871589,6.91127524 -0.714455328,8.07069096 -0.714455328,9.50090274 C-0.714455328,9.98458205 -0.288634079,10.4372903 0.45263583,10.8246567" id="Oval-2" transform="translate(7.657067, 8.959106) rotate(-149.000000) translate(-7.657067, -8.959106) "></path>
        </g>
    </g>
</svg>