<svg xmlns="http://www.w3.org/2000/svg" viewBox="0 0 418.8 83.3"><defs><style>.cls-1{fill:#404041;}.cls-2{fill:#6bb545;}.cls-3{fill:#00a1df;}.cls-4{fill:#9bca3b;}</style></defs><title>Asset 1</title><g id="Layer_2" data-name="Layer 2"><g id="Layer_1-2" data-name="Layer 1"><g id="_Group_" data-name="&lt;Group&gt;"><path id="_Compound_Path_" data-name="&lt;Compound Path&gt;" class="cls-1" d="M126.91,41.88l-6.55,6.83V72.32H112.7V9.41h7.66V38.93L148.68,9.41h10.15L132.45,36.25,162,72.32H151.82Z"/><path id="_Compound_Path_2" data-name="&lt;Compound Path&gt;" class="cls-1" d="M208.74,72.32h-7.29v-5.9h-.19a20.74,20.74,0,0,1-16.14,7.47c-12,0-22.69-9.32-22.69-23.71,0-13.65,10-23.52,23.15-23.52,8,0,12.73,4.24,15.77,7.84h.09V28.13h7.29Zm-22.6-4.89c8.3,0,16-7,16-17C202.1,39.94,195,33,186.32,33,175.25,33,170,41.69,170,50.18S175.25,67.43,186.14,67.43Z"/><path id="_Compound_Path_3" data-name="&lt;Compound Path&gt;" class="cls-1" d="M216.68,28.13h5.81V14h7.29V28.13h11.81v6.09H229.77V57.56c0,7.19,2.21,9.13,6.92,9.13A20.27,20.27,0,0,0,242,66v6a21.82,21.82,0,0,1-6.83.92c-10.7,0-12.73-7.19-12.73-15.59V34.22h-5.81Z"/><path id="_Compound_Path_4" data-name="&lt;Compound Path&gt;" class="cls-1" d="M293.34,72.32H286v-5.9h-.19a20.74,20.74,0,0,1-16.14,7.47c-12,0-22.69-9.32-22.69-23.71,0-13.65,10-23.52,23.15-23.52,8,0,12.73,4.24,15.77,7.84H286V28.13h7.29Zm-22.6-4.89c8.3,0,16-7,16-17,0-10.52-7.1-17.44-15.77-17.44-11.07,0-16.33,8.67-16.33,17.16S259.85,67.43,270.73,67.43Z"/><path id="_Compound_Path_5" data-name="&lt;Compound Path&gt;" class="cls-1" d="M306.07,9.41h7.29V72.32h-7.29Z"/><path id="_Compound_Path_6" data-name="&lt;Compound Path&gt;" class="cls-1" d="M346.66,26.66c13.74,0,23.62,10.15,23.62,23.52a23.62,23.62,0,1,1-47.23,0C323,36.53,333.37,26.66,346.66,26.66Zm0,40.59c9.32,0,16.05-7.38,16.05-17.07,0-9.32-6.37-17-16.05-17-9.41,0-16.05,7.19-16.05,17C330.61,60.14,338.17,67.25,346.66,67.25Z"/><path id="_Compound_Path_7" data-name="&lt;Compound Path&gt;" class="cls-1" d="M380,28.13h7.29v5.53h.18a17,17,0,0,1,13.93-7c8,0,17.44,5,17.44,19.93V72.32h-7.29V47c0-8.95-4.34-13.84-11.26-13.84-7.93,0-13,5.35-13,15.59V72.32H380Z"/></g><rect class="cls-2" width="31.24" height="83.3"/><polygon class="cls-3" points="57.29 41.69 31.24 0 0 0 41.67 66.67 57.29 41.69"/><polygon class="cls-3" points="59.89 45.85 44.27 70.84 52.06 83.3 83.3 83.3 59.89 45.85"/><polygon class="cls-4" points="0 83.3 31.23 83.3 83.3 0 52.06 0 0 83.3"/></g></g></svg>