<svg width="135" height="24" viewBox="0 0 135 24" fill="none" xmlns="http://www.w3.org/2000/svg">
    <path d="M30.3691 12.7002L29.2412 13.8965V17H27.5117V7.04688H29.2412V11.7158L30.1982 10.5332L33.1104 7.04688H35.2021L31.5039 11.4561L35.4141 17H33.3633L30.3691 12.7002ZM40.6025 17C40.5296 16.8587 40.4658 16.6286 40.4111 16.3096C39.8825 16.861 39.2354 17.1367 38.4697 17.1367C37.7269 17.1367 37.1208 16.9248 36.6514 16.501C36.182 16.0771 35.9473 15.5531 35.9473 14.9287C35.9473 14.1403 36.2389 13.5365 36.8223 13.1172C37.4102 12.6934 38.2487 12.4814 39.3379 12.4814H40.3564V11.9961C40.3564 11.6133 40.2493 11.3079 40.0352 11.0801C39.821 10.8477 39.4951 10.7314 39.0576 10.7314C38.6794 10.7314 38.3695 10.8271 38.1279 11.0186C37.8864 11.2054 37.7656 11.4447 37.7656 11.7363H36.1045C36.1045 11.3307 36.2389 10.9525 36.5078 10.6016C36.7767 10.2461 37.1413 9.9681 37.6016 9.76758C38.0664 9.56706 38.5837 9.4668 39.1533 9.4668C40.0192 9.4668 40.7096 9.68555 41.2246 10.123C41.7396 10.556 42.0039 11.1667 42.0176 11.9551V15.291C42.0176 15.9564 42.111 16.4873 42.2979 16.8838V17H40.6025ZM38.7773 15.8037C39.1055 15.8037 39.4131 15.724 39.7002 15.5645C39.9919 15.4049 40.2106 15.1908 40.3564 14.9219V13.5273H39.4609C38.8457 13.5273 38.3831 13.6344 38.0732 13.8486C37.7633 14.0628 37.6084 14.3659 37.6084 14.7578C37.6084 15.0768 37.7132 15.332 37.9229 15.5234C38.137 15.7103 38.4219 15.8037 38.7773 15.8037ZM45.8389 7.80566V9.60352H47.1445V10.834H45.8389V14.9629C45.8389 15.2454 45.8936 15.4505 46.0029 15.5781C46.1169 15.7012 46.3174 15.7627 46.6045 15.7627C46.7959 15.7627 46.9896 15.7399 47.1855 15.6943V16.9795C46.8073 17.0843 46.4427 17.1367 46.0918 17.1367C44.8158 17.1367 44.1777 16.4326 44.1777 15.0244V10.834H42.9609V9.60352H44.1777V7.80566H45.8389ZM52.8389 17C52.766 16.8587 52.7021 16.6286 52.6475 16.3096C52.1188 16.861 51.4717 17.1367 50.7061 17.1367C49.9632 17.1367 49.3571 16.9248 48.8877 16.501C48.4183 16.0771 48.1836 15.5531 48.1836 14.9287C48.1836 14.1403 48.4753 13.5365 49.0586 13.1172C49.6465 12.6934 50.485 12.4814 51.5742 12.4814H52.5928V11.9961C52.5928 11.6133 52.4857 11.3079 52.2715 11.0801C52.0573 10.8477 51.7314 10.7314 51.2939 10.7314C50.9157 10.7314 50.6058 10.8271 50.3643 11.0186C50.1227 11.2054 50.002 11.4447 50.002 11.7363H48.3408C48.3408 11.3307 48.4753 10.9525 48.7441 10.6016C49.013 10.2461 49.3776 9.9681 49.8379 9.76758C50.3027 9.56706 50.82 9.4668 51.3896 9.4668C52.2555 9.4668 52.946 9.68555 53.4609 10.123C53.9759 10.556 54.2402 11.1667 54.2539 11.9551V15.291C54.2539 15.9564 54.3473 16.4873 54.5342 16.8838V17H52.8389ZM51.0137 15.8037C51.3418 15.8037 51.6494 15.724 51.9365 15.5645C52.2282 15.4049 52.4469 15.1908 52.5928 14.9219V13.5273H51.6973C51.082 13.5273 50.6195 13.6344 50.3096 13.8486C49.9997 14.0628 49.8447 14.3659 49.8447 14.7578C49.8447 15.0768 49.9495 15.332 50.1592 15.5234C50.3734 15.7103 50.6582 15.8037 51.0137 15.8037ZM57.7607 17H56.0996V6.5H57.7607V17ZM59.2646 13.2334C59.2646 12.5088 59.4082 11.8571 59.6953 11.2783C59.9824 10.695 60.3857 10.2484 60.9053 9.93848C61.4248 9.62402 62.0218 9.4668 62.6963 9.4668C63.6943 9.4668 64.5033 9.78809 65.123 10.4307C65.7474 11.0732 66.0846 11.9255 66.1348 12.9873L66.1416 13.377C66.1416 14.1061 66.0003 14.7578 65.7178 15.332C65.4398 15.9062 65.0387 16.3506 64.5146 16.665C63.9951 16.9795 63.3936 17.1367 62.71 17.1367C61.6663 17.1367 60.8301 16.7904 60.2012 16.0977C59.5768 15.4004 59.2646 14.473 59.2646 13.3154V13.2334ZM60.9258 13.377C60.9258 14.138 61.083 14.735 61.3975 15.168C61.7119 15.5964 62.1494 15.8105 62.71 15.8105C63.2705 15.8105 63.7057 15.5918 64.0156 15.1543C64.3301 14.7168 64.4873 14.0765 64.4873 13.2334C64.4873 12.486 64.3255 11.8936 64.002 11.4561C63.6829 11.0186 63.2477 10.7998 62.6963 10.7998C62.154 10.7998 61.7233 11.0163 61.4043 11.4492C61.0853 11.8776 60.9258 12.5202 60.9258 13.377ZM69.0879 9.60352L69.1357 10.458C69.6826 9.7972 70.4004 9.4668 71.2891 9.4668C72.8294 9.4668 73.6133 10.3486 73.6406 12.1123V17H71.9795V12.208C71.9795 11.7386 71.877 11.3923 71.6719 11.1689C71.4714 10.9411 71.141 10.8271 70.6807 10.8271C70.0107 10.8271 69.5117 11.1302 69.1836 11.7363V17H67.5225V9.60352H69.0879ZM82.6436 13.165H80.7158V17H78.9863V7.04688H82.4863C83.6348 7.04688 84.5212 7.30436 85.1455 7.81934C85.7699 8.33431 86.082 9.07943 86.082 10.0547C86.082 10.7201 85.9202 11.2783 85.5967 11.7295C85.2777 12.1761 84.8311 12.5202 84.2568 12.7617L86.4922 16.9111V17H84.6396L82.6436 13.165ZM80.7158 11.7773H82.4932C83.0765 11.7773 83.5322 11.6315 83.8604 11.3398C84.1885 11.0436 84.3525 10.6403 84.3525 10.1299C84.3525 9.59668 84.1999 9.18424 83.8945 8.89258C83.5938 8.60091 83.1426 8.45052 82.541 8.44141H80.7158V11.7773ZM90.8193 17.1367C89.7666 17.1367 88.9121 16.8063 88.2559 16.1455C87.6042 15.4801 87.2783 14.596 87.2783 13.4932V13.2881C87.2783 12.5498 87.4196 11.8913 87.7021 11.3125C87.9893 10.7292 88.3903 10.2757 88.9053 9.95215C89.4202 9.62858 89.9945 9.4668 90.6279 9.4668C91.6351 9.4668 92.4121 9.78809 92.959 10.4307C93.5104 11.0732 93.7861 11.9824 93.7861 13.1582V13.8281H88.9531C89.0033 14.4388 89.2061 14.9219 89.5615 15.2773C89.9215 15.6328 90.3727 15.8105 90.915 15.8105C91.6761 15.8105 92.2959 15.5029 92.7744 14.8877L93.6699 15.7422C93.3737 16.1842 92.9772 16.5283 92.4805 16.7744C91.9883 17.016 91.4346 17.1367 90.8193 17.1367ZM90.6211 10.7998C90.1654 10.7998 89.7962 10.9593 89.5137 11.2783C89.2357 11.5973 89.0579 12.0417 88.9805 12.6113H92.1455V12.4883C92.109 11.9323 91.9609 11.513 91.7012 11.2305C91.4414 10.9434 91.0814 10.7998 90.6211 10.7998ZM98.1201 15.8105C98.5348 15.8105 98.8789 15.6898 99.1523 15.4482C99.4258 15.2067 99.5716 14.9082 99.5898 14.5527H101.155C101.137 15.013 100.993 15.4437 100.725 15.8447C100.456 16.2412 100.091 16.5557 99.6309 16.7881C99.1706 17.0205 98.6738 17.1367 98.1406 17.1367C97.1061 17.1367 96.2858 16.8018 95.6797 16.1318C95.0736 15.4619 94.7705 14.5368 94.7705 13.3564V13.1855C94.7705 12.0599 95.0713 11.1598 95.6729 10.4854C96.2744 9.80632 97.0947 9.4668 98.1338 9.4668C99.0133 9.4668 99.7288 9.72428 100.28 10.2393C100.836 10.7497 101.128 11.4219 101.155 12.2559H99.5898C99.5716 11.832 99.4258 11.4834 99.1523 11.21C98.8835 10.9365 98.5394 10.7998 98.1201 10.7998C97.5824 10.7998 97.1676 10.9958 96.876 11.3877C96.5843 11.7751 96.4362 12.3652 96.4316 13.1582V13.4248C96.4316 14.2269 96.5752 14.8262 96.8623 15.2227C97.154 15.6146 97.5732 15.8105 98.1201 15.8105ZM102.099 13.2334C102.099 12.5088 102.242 11.8571 102.529 11.2783C102.816 10.695 103.22 10.2484 103.739 9.93848C104.259 9.62402 104.856 9.4668 105.53 9.4668C106.528 9.4668 107.337 9.78809 107.957 10.4307C108.581 11.0732 108.919 11.9255 108.969 12.9873L108.976 13.377C108.976 14.1061 108.834 14.7578 108.552 15.332C108.274 15.9062 107.873 16.3506 107.349 16.665C106.829 16.9795 106.228 17.1367 105.544 17.1367C104.5 17.1367 103.664 16.7904 103.035 16.0977C102.411 15.4004 102.099 14.473 102.099 13.3154V13.2334ZM103.76 13.377C103.76 14.138 103.917 14.735 104.231 15.168C104.546 15.5964 104.983 15.8105 105.544 15.8105C106.104 15.8105 106.54 15.5918 106.85 15.1543C107.164 14.7168 107.321 14.0765 107.321 13.2334C107.321 12.486 107.16 11.8936 106.836 11.4561C106.517 11.0186 106.082 10.7998 105.53 10.7998C104.988 10.7998 104.557 11.0163 104.238 11.4492C103.919 11.8776 103.76 12.5202 103.76 13.377ZM114.253 11.1211C114.034 11.0846 113.809 11.0664 113.576 11.0664C112.815 11.0664 112.302 11.3581 112.038 11.9414V17H110.377V9.60352H111.963L112.004 10.4307C112.405 9.78809 112.961 9.4668 113.672 9.4668C113.909 9.4668 114.105 9.4987 114.26 9.5625L114.253 11.1211ZM114.854 13.2471C114.854 12.1077 115.119 11.194 115.647 10.5059C116.176 9.81315 116.885 9.4668 117.773 9.4668C118.557 9.4668 119.191 9.74023 119.674 10.2871V6.5H121.335V17H119.831L119.749 16.2344C119.252 16.8359 118.589 17.1367 117.76 17.1367C116.894 17.1367 116.192 16.7881 115.654 16.0908C115.121 15.3936 114.854 14.4456 114.854 13.2471ZM116.516 13.3906C116.516 14.1426 116.659 14.7305 116.946 15.1543C117.238 15.5736 117.65 15.7832 118.184 15.7832C118.863 15.7832 119.359 15.4801 119.674 14.874V11.7158C119.368 11.1234 118.876 10.8271 118.197 10.8271C117.66 10.8271 117.245 11.0413 116.953 11.4697C116.661 11.8936 116.516 12.5339 116.516 13.3906ZM126.325 17.1367C125.272 17.1367 124.418 16.8063 123.762 16.1455C123.11 15.4801 122.784 14.596 122.784 13.4932V13.2881C122.784 12.5498 122.925 11.8913 123.208 11.3125C123.495 10.7292 123.896 10.2757 124.411 9.95215C124.926 9.62858 125.5 9.4668 126.134 9.4668C127.141 9.4668 127.918 9.78809 128.465 10.4307C129.016 11.0732 129.292 11.9824 129.292 13.1582V13.8281H124.459C124.509 14.4388 124.712 14.9219 125.067 15.2773C125.427 15.6328 125.879 15.8105 126.421 15.8105C127.182 15.8105 127.802 15.5029 128.28 14.8877L129.176 15.7422C128.88 16.1842 128.483 16.5283 127.986 16.7744C127.494 17.016 126.94 17.1367 126.325 17.1367ZM126.127 10.7998C125.671 10.7998 125.302 10.9593 125.02 11.2783C124.742 11.5973 124.564 12.0417 124.486 12.6113H127.651V12.4883C127.615 11.9323 127.467 11.513 127.207 11.2305C126.947 10.9434 126.587 10.7998 126.127 10.7998ZM134.46 11.1211C134.241 11.0846 134.016 11.0664 133.783 11.0664C133.022 11.0664 132.509 11.3581 132.245 11.9414V17H130.584V9.60352H132.17L132.211 10.4307C132.612 9.78809 133.168 9.4668 133.879 9.4668C134.116 9.4668 134.312 9.4987 134.467 9.5625L134.46 11.1211Z" fill="#233145"/>
    <path fill-rule="evenodd" clip-rule="evenodd" d="M0 23.9998H12.5638L10.8185 21.0895L23.9999 0H0V23.9998Z" fill="#F04864"/>
    <path fill-rule="evenodd" clip-rule="evenodd" d="M23.9999 23.9999H10.396L4.98212 15.3L13.9965 8L23.9999 23.9999Z" fill="#CC1433"/>
    <path fill-rule="evenodd" clip-rule="evenodd" d="M11.2 19.04C15.0879 19.04 18.2399 15.888 18.2399 12C18.2399 8.1119 15.0879 4.96008 11.2 4.96008C7.31183 4.96008 4.16 8.1119 4.16 12C4.16 15.888 7.31183 19.04 11.2 19.04Z" fill="white"/>
    <path fill-rule="evenodd" clip-rule="evenodd" d="M8.15997 15.8397V8.15979H11.7804C13.4262 8.15979 14.5782 9.31178 14.5782 10.7929C14.5782 12.4386 13.2617 13.042 13.2617 13.042L14.8524 15.8397H12.6582L11.3417 13.426H10.2444V15.8397H8.15997ZM12.4936 10.7929C12.4936 10.354 12.1644 10.0249 11.6707 10.0249H10.2444V11.5609H11.6707C12.1644 11.5609 12.4936 11.2318 12.4936 10.7929Z" fill="#CC1433"/>
</svg>
